<svg width="280" height="273" viewBox="0 0 280 273" fill="none" xmlns="http://www.w3.org/2000/svg">
<g clip-path="url(#clip0_3286_38717)">
<path d="M177.755 61.3968H102.308C100.588 61.3989 98.94 62.082 97.7242 63.2963C96.5085 64.5107 95.8245 66.1571 95.8224 67.8744V235.365L94.9578 235.628L76.4492 241.29C75.572 241.557 74.6246 241.465 73.8148 241.036C73.0051 240.606 72.3992 239.872 72.1302 238.997L17.0757 59.3714C16.8078 58.4953 16.8991 57.5487 17.3296 56.7397C17.7601 55.9308 18.4945 55.3256 19.3715 55.0573L47.8931 46.3341L130.578 21.054L159.1 12.3307C159.534 12.1973 159.99 12.1507 160.442 12.1935C160.894 12.2364 161.334 12.3679 161.735 12.5804C162.136 12.793 162.491 13.0826 162.78 13.4324C163.069 13.7823 163.286 14.1857 163.419 14.6195L177.492 60.5331L177.755 61.3968Z" fill="#F2F2F2"/>
<path d="M194.219 60.5331L177.258 5.19675C176.976 4.27475 176.515 3.41731 175.901 2.67345C175.287 1.92959 174.532 1.31388 173.679 0.861511C172.827 0.409137 171.894 0.128959 170.933 0.0369984C169.972 -0.0549621 169.003 0.0430968 168.08 0.325562L127.98 12.5856L45.2991 37.87L5.19946 50.1344C3.33664 50.7057 1.77688 51.992 0.862535 53.7108C-0.0518073 55.4297 -0.246026 57.4407 0.322517 59.3024L58.2909 248.42C58.7528 249.922 59.6847 251.238 60.9499 252.173C62.2151 253.108 63.747 253.613 65.3209 253.615C66.0493 253.615 66.7736 253.506 67.4695 253.291L94.9578 244.887L95.8225 244.619V243.717L94.9578 243.98L67.2145 252.466C65.5702 252.967 63.7943 252.795 62.2762 251.99C60.7581 251.184 59.6219 249.81 59.1167 248.169L1.15279 59.0476C0.902503 58.2344 0.815271 57.3799 0.896087 56.533C0.976903 55.6861 1.22417 54.8634 1.62375 54.112C2.02333 53.3607 2.56737 52.6955 3.2247 52.1545C3.88203 51.6135 4.63974 51.2073 5.45446 50.9592L45.5541 38.6948L128.235 13.4147L168.335 1.15039C168.953 0.96202 169.595 0.865974 170.241 0.865372C171.628 0.868482 172.977 1.31499 174.091 2.13949C175.205 2.964 176.026 4.12317 176.433 5.44723L193.315 60.5332L193.584 61.3968H194.483L194.219 60.5331Z" fill="#BDBDBD"/>
<path d="M53.04 55.1985C52.2067 55.1979 51.3955 54.9306 50.7254 54.4358C50.0554 53.941 49.5618 53.2447 49.3169 52.4491L43.7482 34.2807C43.5986 33.7927 43.5466 33.28 43.5954 32.7719C43.6441 32.2638 43.7926 31.7703 44.0324 31.3195C44.2721 30.8688 44.5984 30.4696 44.9926 30.1448C45.3868 29.8201 45.8412 29.576 46.3298 29.4267L122.396 6.16597C123.382 5.86521 124.448 5.96779 125.359 6.45119C126.27 6.93459 126.952 7.75933 127.255 8.74438L132.824 26.913C133.125 27.8986 133.022 28.9632 132.538 29.8733C132.054 30.7833 131.229 31.4644 130.243 31.7672L54.1767 55.0279C53.8084 55.1409 53.4253 55.1984 53.04 55.1985V55.1985Z" fill="url(#paint0_linear_3286_38717)"/>
<path d="M82.2113 19.4134C86.9868 19.4134 90.8581 15.5465 90.8581 10.7765C90.8581 6.0065 86.9868 2.13965 82.2113 2.13965C77.4358 2.13965 73.5645 6.0065 73.5645 10.7765C73.5645 15.5465 77.4358 19.4134 82.2113 19.4134Z" fill="url(#paint1_linear_3286_38717)"/>
<path d="M82.2113 16.2456C85.2353 16.2456 87.6867 13.797 87.6867 10.7765C87.6867 7.75599 85.2353 5.30737 82.2113 5.30737C79.1873 5.30737 76.7358 7.75599 76.7358 10.7765C76.7358 13.797 79.1873 16.2456 82.2113 16.2456Z" fill="white"/>
<path d="M260.545 251.408H114.413C113.439 251.407 112.505 251.02 111.816 250.332C111.127 249.643 110.739 248.71 110.738 247.737V72.8407C110.739 71.8675 111.127 70.9345 111.816 70.2464C112.505 69.5582 113.439 69.1711 114.413 69.17H260.545C261.519 69.1712 262.453 69.5583 263.142 70.2464C263.831 70.9345 264.218 71.8675 264.219 72.8407V247.737C264.218 248.71 263.831 249.643 263.142 250.332C262.453 251.02 261.519 251.407 260.545 251.408V251.408Z" fill="#E6E6E6"/>
<path d="M193.316 60.5331H102.308C100.359 60.5358 98.4915 61.3102 97.1138 62.6864C95.736 64.0625 94.9608 65.9282 94.958 67.8744V243.98L95.8227 243.717V67.8744C95.8248 66.1571 96.5087 64.5107 97.7244 63.2963C98.9402 62.082 100.588 61.3989 102.308 61.3968H193.584L193.316 60.5331ZM272.65 60.5331H102.308C100.359 60.5358 98.4915 61.3102 97.1138 62.6864C95.736 64.0625 94.9608 65.9282 94.958 67.8744V265.659C94.9608 267.605 95.736 269.471 97.1138 270.847C98.4915 272.223 100.359 272.997 102.308 273H272.65C274.599 272.997 276.467 272.223 277.844 270.847C279.222 269.471 279.997 267.605 280 265.659V67.8744C279.997 65.9282 279.222 64.0625 277.844 62.6864C276.467 61.3102 274.599 60.5358 272.65 60.5331V60.5331ZM279.135 265.659C279.133 267.376 278.449 269.022 277.234 270.237C276.018 271.451 274.37 272.134 272.65 272.136H102.308C100.588 272.134 98.9402 271.451 97.7244 270.237C96.5087 269.022 95.8248 267.376 95.8227 265.659V67.8744C95.8248 66.1571 96.5087 64.5107 97.7244 63.2963C98.9402 62.082 100.588 61.3989 102.308 61.3968H272.65C274.37 61.3989 276.018 62.082 277.234 63.2963C278.449 64.5107 279.133 66.1571 279.135 67.8744V265.659Z" fill="#BDBDBD"/>
<path d="M227.254 79.5342H147.704C146.672 79.533 145.683 79.1232 144.953 78.3945C144.224 77.6659 143.814 76.678 143.812 75.6476V56.6465C143.814 55.616 144.224 54.6282 144.953 53.8995C145.683 53.1709 146.672 52.761 147.704 52.7599H227.254C228.286 52.761 229.275 53.1709 230.005 53.8995C230.734 54.6282 231.144 55.616 231.145 56.6465V75.6476C231.144 76.678 230.734 77.6659 230.005 78.3945C229.275 79.1232 228.286 79.533 227.254 79.5342V79.5342Z" fill="url(#paint2_linear_3286_38717)"/>
<path d="M187.479 54.0555C192.254 54.0555 196.126 50.1886 196.126 45.4186C196.126 40.6486 192.254 36.7817 187.479 36.7817C182.703 36.7817 178.832 40.6486 178.832 45.4186C178.832 50.1886 182.703 54.0555 187.479 54.0555Z" fill="url(#paint3_linear_3286_38717)"/>
<path d="M187.479 50.6793C190.388 50.6793 192.746 48.324 192.746 45.4186C192.746 42.5132 190.388 40.158 187.479 40.158C184.57 40.158 182.212 42.5132 182.212 45.4186C182.212 48.324 184.57 50.6793 187.479 50.6793Z" fill="white"/>
</g>
<defs>
<linearGradient id="paint0_linear_3286_38717" x1="132.993" y1="55.1985" x2="42.7168" y2="7.63028" gradientUnits="userSpaceOnUse">
<stop stop-color="#007AFF"/>
<stop offset="1" stop-color="#6BA9EC"/>
</linearGradient>
<linearGradient id="paint1_linear_3286_38717" x1="90.8581" y1="19.4134" x2="70.2839" y2="13.4412" gradientUnits="userSpaceOnUse">
<stop stop-color="#007AFF"/>
<stop offset="1" stop-color="#6BA9EC"/>
</linearGradient>
<linearGradient id="paint2_linear_3286_38717" x1="231.145" y1="79.5342" x2="171.679" y2="23.2945" gradientUnits="userSpaceOnUse">
<stop stop-color="#007AFF"/>
<stop offset="1" stop-color="#6BA9EC"/>
</linearGradient>
<linearGradient id="paint3_linear_3286_38717" x1="196.126" y1="54.0555" x2="175.551" y2="48.0833" gradientUnits="userSpaceOnUse">
<stop stop-color="#007AFF"/>
<stop offset="1" stop-color="#6BA9EC"/>
</linearGradient>
<clipPath id="clip0_3286_38717">
<rect width="280" height="273" fill="white"/>
</clipPath>
</defs>
</svg>
