<svg width="203" height="168" viewBox="0 0 203 168" fill="none" xmlns="http://www.w3.org/2000/svg">
<circle opacity="0.1" cx="101.5" cy="106" r="62" fill="#007AFF"/>
<ellipse cx="35" cy="73" rx="4.5" ry="4" fill="#34D399"/>
<ellipse cx="108" cy="30.5" rx="7.5" ry="8.5" fill="#B468FF"/>
<circle cx="183" cy="108.5" r="8.5" fill="#34D399"/>
<path d="M149 20L150.952 25.9183L156.5 28L150.952 30.0817L149 36L147.048 30.0817L141.5 28L147.048 25.9183L149 20Z" fill="#FB46FF"/>
<path d="M27.677 92.4106C27.677 92.4106 26.06 98.9621 18.4018 99.2442C13.2963 99.4322 12.0953 94.1218 6.1312 97.7165C3.47515 99.3174 1.5 104.182 1.5 104.182" stroke="#FB46FF" stroke-width="2.23885" stroke-linecap="round"/>
<path d="M31 130L33.8882 137.612L41.5 140.5L33.8882 143.388L31 151L28.1118 143.388L20.5 140.5L28.1118 137.612L31 130Z" fill="#007AFF"/>
<circle cx="98.5" cy="18" r="2" fill="#FB46FF"/>
<path d="M37.1746 18.7086C38.1401 27.1327 57.6446 35.5291 58.0792 28.6369C58.7678 17.7154 32.4631 26.2308 68.3503 40.5426" stroke="#007AFF" stroke-width="2.23885" stroke-linecap="round"/>
<path d="M181.229 146.901C186.104 146.207 196.735 147.377 200.252 157.612" stroke="#B468FF" stroke-width="2.23885" stroke-linecap="round"/>
<path d="M176.395 51.8342C176.395 51.8342 183.524 55.4743 186.512 52.212C189.237 49.2361 186.086 44.5917 189.383 42.271C192.066 40.3826 197.75 41.6264 197.75 41.6264" stroke="#007AFF" stroke-width="2.23885" stroke-linecap="round"/>
<rect x="173.5" y="88" width="7" height="7" rx="1.49257" fill="#007AFF"/>
<path d="M93.8467 63.5C98.7471 61.4703 104.253 61.4703 109.153 63.5L126.141 70.5361C131.041 72.566 134.934 76.4592 136.964 81.3594L144 98.3467C146.03 103.247 146.03 108.753 144 113.653L136.964 130.641C134.934 135.541 131.041 139.434 126.141 141.464L109.153 148.5C104.253 150.53 98.7471 150.53 93.8467 148.5L76.8594 141.464C71.9592 139.434 68.066 135.541 66.0361 130.641L59 113.653C56.9703 108.753 56.9703 103.247 59 98.3467L66.0361 81.3594C68.066 76.4592 71.9592 72.566 76.8594 70.5361L93.8467 63.5Z" fill="#E8EDFB" stroke="url(#paint0_linear_3286_38360)" stroke-width="8"/>
<path d="M100.98 92.6669C105.071 92.6671 108.364 95.8866 108.364 99.8612V101.906C110.66 102.623 112.333 104.702 112.333 107.184V113.767C112.333 116.841 109.785 119.334 106.643 119.334H95.3579C92.2149 119.334 89.6666 116.841 89.6665 113.767V107.184C89.6666 104.702 91.3412 102.623 93.6362 101.906V99.8612C93.65 95.8864 96.9426 92.6669 100.98 92.6669ZM100.993 107.846C100.342 107.846 99.814 108.363 99.814 108.999V111.94C99.8141 112.589 100.342 113.106 100.993 113.106C101.656 113.106 102.185 112.589 102.185 111.94V108.999C102.185 108.363 101.657 107.846 100.993 107.846ZM101.006 94.9852C98.2561 94.9853 96.021 97.1585 96.0073 99.8348V101.619H105.993V99.8612C105.992 97.1717 103.757 94.9852 101.006 94.9852Z" fill="url(#paint1_linear_3286_38360)"/>
<defs>
<linearGradient id="paint0_linear_3286_38360" x1="76" y1="66.5" x2="127" y2="143" gradientUnits="userSpaceOnUse">
<stop offset="0.125" stop-color="#007AFF"/>
<stop offset="0.504946" stop-color="#88C0FE"/>
<stop offset="1" stop-color="#007AFF"/>
</linearGradient>
<linearGradient id="paint1_linear_3286_38360" x1="112.333" y1="119.334" x2="84.7686" y2="112.54" gradientUnits="userSpaceOnUse">
<stop stop-color="#007AFF"/>
<stop offset="1" stop-color="#6BA9EC"/>
</linearGradient>
</defs>
</svg>
