<svg width="202" height="168" viewBox="0 0 202 168" fill="none" xmlns="http://www.w3.org/2000/svg">
<circle opacity="0.1" cx="100.5" cy="106" r="62" fill="#007AFF"/>
<path d="M92.8467 63.5C97.7471 61.4703 103.253 61.4703 108.153 63.5L125.141 70.5361C130.041 72.566 133.934 76.4592 135.964 81.3594L143 98.3467C145.03 103.247 145.03 108.753 143 113.653L135.964 130.641C133.934 135.541 130.041 139.434 125.141 141.464L108.153 148.5C103.253 150.53 97.7471 150.53 92.8467 148.5L75.8594 141.464C70.9592 139.434 67.066 135.541 65.0361 130.641L58 113.653C55.9703 108.753 55.9703 103.247 58 98.3467L65.0361 81.3594C67.066 76.4592 70.9592 72.566 75.8594 70.5361L92.8467 63.5Z" fill="#E8EDFB" stroke="url(#paint0_linear_3286_38429)" stroke-width="8"/>
<path fill-rule="evenodd" clip-rule="evenodd" d="M108.191 101.676H113.833C113.833 97.1459 111.119 94.4998 106.52 94.4998H94.4786C89.8801 94.4998 87.166 97.1459 87.166 101.618V111.382C87.166 115.854 89.8801 118.5 94.4786 118.5H106.52C111.119 118.5 113.833 115.854 113.833 111.382V110.966H108.191C105.573 110.966 103.45 108.897 103.45 106.344C103.45 103.791 105.573 101.722 108.191 101.722V101.676ZM108.191 103.663H112.837C113.387 103.663 113.832 104.097 113.832 104.634V108.008C113.826 108.541 113.384 108.972 112.837 108.978H108.298C106.972 108.996 105.813 108.111 105.512 106.852C105.362 106.071 105.573 105.264 106.09 104.649C106.606 104.034 107.375 103.673 108.191 103.663ZM108.392 107.21H108.83C109.393 107.21 109.85 106.765 109.85 106.217C109.85 105.668 109.393 105.223 108.83 105.223H108.392C108.123 105.22 107.863 105.322 107.672 105.506C107.48 105.691 107.373 105.943 107.373 106.205C107.373 106.756 107.827 107.204 108.392 107.21ZM93.4831 101.676H101.009C101.572 101.676 102.028 101.231 102.028 100.682C102.028 100.133 101.572 99.6881 101.009 99.6881H93.4831C92.9248 99.6881 92.4704 100.126 92.4639 100.67C92.4639 101.221 92.9183 101.669 93.4831 101.676Z" fill="url(#paint1_linear_3286_38429)"/>
<defs>
<linearGradient id="paint0_linear_3286_38429" x1="75" y1="66.5" x2="126" y2="143" gradientUnits="userSpaceOnUse">
<stop offset="0.125" stop-color="#007AFF"/>
<stop offset="0.504946" stop-color="#88C0FE"/>
<stop offset="1" stop-color="#007AFF"/>
</linearGradient>
<linearGradient id="paint1_linear_3286_38429" x1="113.833" y1="118.5" x2="82.6686" y2="108.46" gradientUnits="userSpaceOnUse">
<stop stop-color="#007AFF"/>
<stop offset="1" stop-color="#6BA9EC"/>
</linearGradient>
</defs>
</svg>
