<svg width="203" height="168" viewBox="0 0 203 168" fill="none" xmlns="http://www.w3.org/2000/svg">
<circle opacity="0.1" cx="101.5" cy="106" r="62" fill="#007AFF"/>
<ellipse cx="35" cy="73" rx="4.5" ry="4" fill="#34D399"/>
<ellipse cx="108" cy="30.5" rx="7.5" ry="8.5" fill="#B468FF"/>
<circle cx="183" cy="108.5" r="8.5" fill="#34D399"/>
<path d="M149 20L150.952 25.9183L156.5 28L150.952 30.0817L149 36L147.048 30.0817L141.5 28L147.048 25.9183L149 20Z" fill="#FB46FF"/>
<path d="M27.677 92.4106C27.677 92.4106 26.06 98.9621 18.4018 99.2442C13.2963 99.4322 12.0953 94.1218 6.1312 97.7165C3.47515 99.3174 1.5 104.182 1.5 104.182" stroke="#FB46FF" stroke-width="2.23885" stroke-linecap="round"/>
<path d="M31 130L33.8882 137.612L41.5 140.5L33.8882 143.388L31 151L28.1118 143.388L20.5 140.5L28.1118 137.612L31 130Z" fill="#007AFF"/>
<circle cx="98.5" cy="18" r="2" fill="#FB46FF"/>
<path d="M37.1746 18.7086C38.1401 27.1327 57.6446 35.5291 58.0792 28.6369C58.7678 17.7154 32.4631 26.2308 68.3503 40.5426" stroke="#007AFF" stroke-width="2.23885" stroke-linecap="round"/>
<path d="M181.229 146.901C186.104 146.207 196.735 147.377 200.252 157.612" stroke="#B468FF" stroke-width="2.23885" stroke-linecap="round"/>
<path d="M176.395 51.8342C176.395 51.8342 183.524 55.4743 186.512 52.212C189.237 49.2361 186.086 44.5917 189.383 42.271C192.066 40.3826 197.75 41.6264 197.75 41.6264" stroke="#007AFF" stroke-width="2.23885" stroke-linecap="round"/>
<rect x="173.5" y="88" width="7" height="7" rx="1.49257" fill="#007AFF"/>
<path d="M93.8467 63.5C98.7471 61.4703 104.253 61.4703 109.153 63.5L126.141 70.5361C131.041 72.566 134.934 76.4592 136.964 81.3594L144 98.3467C146.03 103.247 146.03 108.753 144 113.653L136.964 130.641C134.934 135.541 131.041 139.434 126.141 141.464L109.153 148.5C104.253 150.53 98.7471 150.53 93.8467 148.5L76.8594 141.464C71.9592 139.434 68.066 135.541 66.0361 130.641L59 113.653C56.9703 108.753 56.9703 103.247 59 98.3467L66.0361 81.3594C68.066 76.4592 71.9592 72.566 76.8594 70.5361L93.8467 63.5Z" fill="#E8EDFB" stroke="url(#paint0_linear_3286_38430)" stroke-width="8"/>
<path fill-rule="evenodd" clip-rule="evenodd" d="M109.191 101.676H114.833C114.833 97.146 112.119 94.4999 107.52 94.4999H95.4786C90.8801 94.4999 88.166 97.146 88.166 101.618V111.382C88.166 115.854 90.8801 118.5 95.4786 118.5H107.52C112.119 118.5 114.833 115.854 114.833 111.382V110.966H109.191C106.573 110.966 104.45 108.897 104.45 106.344C104.45 103.791 106.573 101.722 109.191 101.722V101.676ZM109.191 103.663H113.837C114.387 103.663 114.832 104.098 114.832 104.634V108.008C114.826 108.541 114.384 108.972 113.837 108.978H109.298C107.972 108.996 106.813 108.111 106.512 106.852C106.362 106.071 106.573 105.265 107.09 104.649C107.606 104.034 108.375 103.673 109.191 103.663ZM109.392 107.21H109.83C110.393 107.21 110.85 106.765 110.85 106.217C110.85 105.668 110.393 105.223 109.83 105.223H109.392C109.123 105.22 108.863 105.322 108.672 105.506C108.48 105.691 108.373 105.943 108.373 106.205C108.373 106.756 108.827 107.204 109.392 107.21ZM94.4831 101.676H102.009C102.572 101.676 103.028 101.231 103.028 100.682C103.028 100.133 102.572 99.6882 102.009 99.6882H94.4831C93.9248 99.6881 93.4704 100.126 93.4639 100.67C93.4639 101.221 93.9183 101.669 94.4831 101.676Z" fill="url(#paint1_linear_3286_38430)"/>
<defs>
<linearGradient id="paint0_linear_3286_38430" x1="76" y1="66.5" x2="127" y2="143" gradientUnits="userSpaceOnUse">
<stop offset="0.125" stop-color="#007AFF"/>
<stop offset="0.504946" stop-color="#88C0FE"/>
<stop offset="1" stop-color="#007AFF"/>
</linearGradient>
<linearGradient id="paint1_linear_3286_38430" x1="114.833" y1="118.5" x2="83.6686" y2="108.46" gradientUnits="userSpaceOnUse">
<stop stop-color="#007AFF"/>
<stop offset="1" stop-color="#6BA9EC"/>
</linearGradient>
</defs>
</svg>
