<svg width="202" height="168" viewBox="0 0 202 168" fill="none" xmlns="http://www.w3.org/2000/svg">
<circle opacity="0.1" cx="100.5" cy="106" r="62" fill="#007AFF"/>
<path d="M92.8467 63.5C97.7471 61.4703 103.253 61.4703 108.153 63.5L125.141 70.5361C130.041 72.566 133.934 76.4592 135.964 81.3594L143 98.3467C145.03 103.247 145.03 108.753 143 113.653L135.964 130.641C133.934 135.541 130.041 139.434 125.141 141.464L108.153 148.5C103.253 150.53 97.7471 150.53 92.8467 148.5L75.8594 141.464C70.9592 139.434 67.066 135.541 65.0361 130.641L58 113.653C55.9703 108.753 55.9703 103.247 58 98.3467L65.0361 81.3594C67.066 76.4592 70.9592 72.566 75.8594 70.5361L92.8467 63.5Z" fill="#E8EDFB" stroke="url(#paint0_linear_3286_38337)" stroke-width="8"/>
<path d="M99.98 92.6669C104.071 92.6671 107.364 95.8866 107.364 99.8612V101.906C109.66 102.623 111.333 104.702 111.333 107.184V113.767C111.333 116.841 108.785 119.334 105.643 119.334H94.3579C91.2149 119.334 88.6666 116.841 88.6665 113.767V107.184C88.6666 104.702 90.3412 102.623 92.6362 101.906V99.8612C92.65 95.8864 95.9426 92.6669 99.98 92.6669ZM99.9927 107.846C99.3424 107.846 98.814 108.363 98.814 108.999V111.94C98.8141 112.589 99.3425 113.106 99.9927 113.106C100.656 113.106 101.185 112.589 101.185 111.94V108.999C101.185 108.363 100.657 107.846 99.9927 107.846ZM100.006 94.9852C97.2561 94.9853 95.021 97.1585 95.0073 99.8348V101.619H104.993V99.8612C104.992 97.1717 102.757 94.9852 100.006 94.9852Z" fill="url(#paint1_linear_3286_38337)"/>
<defs>
<linearGradient id="paint0_linear_3286_38337" x1="75" y1="66.5" x2="126" y2="143" gradientUnits="userSpaceOnUse">
<stop offset="0.125" stop-color="#007AFF"/>
<stop offset="0.504946" stop-color="#88C0FE"/>
<stop offset="1" stop-color="#007AFF"/>
</linearGradient>
<linearGradient id="paint1_linear_3286_38337" x1="111.333" y1="119.334" x2="83.7686" y2="112.54" gradientUnits="userSpaceOnUse">
<stop stop-color="#007AFF"/>
<stop offset="1" stop-color="#6BA9EC"/>
</linearGradient>
</defs>
</svg>
