<svg width="202" height="168" viewBox="0 0 202 168" fill="none" xmlns="http://www.w3.org/2000/svg">
<circle opacity="0.1" cx="100.5" cy="106" r="62" fill="#007AFF"/>
<path d="M92.8467 63.5C97.7471 61.4703 103.253 61.4703 108.153 63.5L125.141 70.5361C130.041 72.566 133.934 76.4592 135.964 81.3594L143 98.3467C145.03 103.247 145.03 108.753 143 113.653L135.964 130.641C133.934 135.541 130.041 139.434 125.141 141.464L108.153 148.5C103.253 150.53 97.7471 150.53 92.8467 148.5L75.8594 141.464C70.9592 139.434 67.066 135.541 65.0361 130.641L58 113.653C55.9703 108.753 55.9703 103.247 58 98.3467L65.0361 81.3594C67.066 76.4592 70.9592 72.566 75.8594 70.5361L92.8467 63.5Z" fill="#E8EDFB" stroke="url(#paint0_linear_3286_38383)" stroke-width="8"/>
<path d="M100 110.232C105.785 110.232 110.667 111.172 110.667 114.799C110.666 118.426 105.753 119.333 100 119.333C94.217 119.333 89.3335 118.393 89.3335 114.766C89.3336 111.138 94.2477 110.232 100 110.232ZM100 92.6667C103.919 92.6669 107.059 95.8055 107.059 99.7214C107.059 103.637 103.919 106.777 100 106.777C96.083 106.777 92.9419 103.637 92.9419 99.7214C92.9419 95.8053 96.083 92.6667 100 92.6667Z" fill="url(#paint1_linear_3286_38383)"/>
<defs>
<linearGradient id="paint0_linear_3286_38383" x1="75" y1="66.5" x2="126" y2="143" gradientUnits="userSpaceOnUse">
<stop offset="0.125" stop-color="#007AFF"/>
<stop offset="0.504946" stop-color="#88C0FE"/>
<stop offset="1" stop-color="#007AFF"/>
</linearGradient>
<linearGradient id="paint1_linear_3286_38383" x1="110.667" y1="119.333" x2="84.5532" y2="113.276" gradientUnits="userSpaceOnUse">
<stop stop-color="#007AFF"/>
<stop offset="1" stop-color="#6BA9EC"/>
</linearGradient>
</defs>
</svg>
