<svg width="300" height="300" viewBox="0 0 300 300" fill="none" xmlns="http://www.w3.org/2000/svg">
<path d="M93.1251 61.3562C108.063 52.2562 129.394 47.4187 151.613 48.1562C173.8 48.9 195.944 55.175 212.6 67.2625C214.278 68.4792 216.37 68.9796 218.416 68.6538C220.463 68.3279 222.296 67.2025 223.513 65.525C224.729 63.8475 225.23 61.7554 224.904 59.7089C224.578 57.6624 223.453 55.8292 221.775 54.6125C202.025 40.2875 176.65 33.3625 152.138 32.5437C127.669 31.725 103.138 36.9625 85.0001 48.0187C84.0899 48.5351 83.2928 49.229 82.656 50.0593C82.0191 50.8896 81.5556 51.8394 81.2929 52.8522C81.0301 53.8651 80.9735 54.9205 81.1265 55.9556C81.2794 56.9908 81.6387 57.9847 82.1831 58.8783C82.7275 59.772 83.4459 60.5471 84.2956 61.1578C85.1453 61.7685 86.109 62.2023 87.1296 62.4334C88.1501 62.6645 89.2067 62.6883 90.2366 62.5032C91.2665 62.3182 92.2488 61.9281 93.1251 61.3562ZM158.731 68.7812C157.712 68.6606 156.68 68.7418 155.692 69.0203C154.704 69.2988 153.781 69.769 152.976 70.4042C152.17 71.0394 151.497 71.8272 150.995 72.7224C150.494 73.6176 150.174 74.6029 150.053 75.6218C149.933 76.6408 150.014 77.6736 150.292 78.6612C150.571 79.6487 151.041 80.5718 151.676 81.3776C152.311 82.1835 153.099 82.8563 153.994 83.3577C154.89 83.8591 155.875 84.1793 156.894 84.3C205.825 90.1125 237.669 127.9 246.994 181.037C247.383 183.048 248.547 184.826 250.234 185.987C251.921 187.149 253.997 187.601 256.014 187.247C258.031 186.893 259.829 185.761 261.02 184.095C262.211 182.428 262.7 180.361 262.381 178.337C252.231 120.494 216.413 75.6312 158.731 68.7812ZM116.844 131.781C92.9876 150.875 79.3313 192.219 105.438 244.969C106.341 246.823 106.474 248.959 105.808 250.912C105.142 252.864 103.731 254.473 101.882 255.389C100.034 256.305 97.8989 256.453 95.9422 255.8C93.9855 255.148 92.3662 253.748 91.4376 251.906C62.7876 194.025 76.3126 144.2 107.081 119.581C122.325 107.381 141.594 101.675 161.031 104.725C180.531 107.787 199.438 119.55 214.225 140.856C214.831 141.698 215.262 142.652 215.496 143.662C215.729 144.672 215.759 145.719 215.583 146.741C215.408 147.763 215.031 148.739 214.474 149.614C213.917 150.489 213.192 151.244 212.34 151.835C211.489 152.427 210.528 152.843 209.514 153.059C208.5 153.276 207.453 153.288 206.434 153.096C205.415 152.903 204.445 152.51 203.579 151.939C202.714 151.368 201.971 150.63 201.394 149.769C188.681 131.456 173.319 122.475 158.606 120.162C143.819 117.837 128.919 122.119 116.844 131.781ZM146.081 257.469C130.088 225.156 125.206 197.844 128.113 179.762C129.55 170.8 132.8 164.681 136.881 161.006C140.825 157.462 146.319 155.494 153.95 156.212C164.094 157.175 168.844 160.512 171.775 164.494C175.163 169.094 176.95 175.556 178.988 184.762L179.6 187.556C183.381 204.956 188.381 227.912 212.638 245.4C214.318 246.612 216.412 247.106 218.457 246.774C220.502 246.443 222.332 245.312 223.544 243.631C224.755 241.95 225.25 239.857 224.918 237.812C224.586 235.766 223.456 233.937 221.775 232.725C202.463 218.8 198.588 201.175 194.738 183.637L194.238 181.387C192.3 172.625 190 162.887 184.356 155.231C178.256 146.95 169.025 141.95 155.425 140.662C144.113 139.587 134.094 142.506 126.444 149.381C118.938 156.131 114.506 165.944 112.681 177.287C109.069 199.819 115.325 230.55 132.081 264.4C133.033 266.198 134.649 267.554 136.586 268.179C138.522 268.804 140.626 268.649 142.45 267.747C144.274 266.845 145.674 265.267 146.352 263.349C147.03 261.43 146.933 259.323 146.081 257.475V257.469ZM73.0501 68.275C74.4205 69.8283 75.118 71.8624 74.989 73.9298C74.8601 75.9973 73.9154 77.9289 72.3626 79.3C62.3876 88.1062 55.6563 96.9687 48.9688 108.594C48.4567 109.483 47.7744 110.263 46.9609 110.888C46.1474 111.514 45.2186 111.973 44.2277 112.24C43.2367 112.507 42.2029 112.575 41.1853 112.443C40.1677 112.31 39.1862 111.978 38.2969 111.466C37.4076 110.953 36.6279 110.271 36.0023 109.458C35.3767 108.644 34.9175 107.715 34.6508 106.724C34.3841 105.733 34.3152 104.7 34.4481 103.682C34.5809 102.664 34.9129 101.683 35.4251 100.794C42.7751 88.025 50.5251 77.7312 62.0251 67.5875C63.5784 66.217 65.6124 65.5196 67.6799 65.6485C69.7474 65.7774 71.679 66.7221 73.0501 68.275ZM226.475 178.494C226.127 176.473 224.999 174.671 223.335 173.474C221.67 172.278 219.601 171.784 217.576 172.099C215.55 172.414 213.729 173.513 212.506 175.158C211.283 176.803 210.756 178.863 211.038 180.894C214.225 201.375 224.819 214.312 237.631 223.537C238.464 224.137 239.407 224.566 240.406 224.801C241.405 225.035 242.441 225.071 243.453 224.906C244.466 224.74 245.436 224.377 246.309 223.837C247.181 223.296 247.938 222.589 248.538 221.756C249.137 220.923 249.566 219.98 249.801 218.981C250.035 217.982 250.071 216.947 249.906 215.934C249.74 214.921 249.377 213.951 248.837 213.079C248.296 212.206 247.589 211.449 246.756 210.85C236.6 203.537 228.894 194.012 226.475 178.494ZM150.988 178.15C152.011 178.073 153.04 178.199 154.015 178.52C154.99 178.841 155.892 179.351 156.67 180.021C157.447 180.691 158.086 181.507 158.548 182.424C159.01 183.34 159.287 184.339 159.363 185.362C161.269 210.831 170.594 232.406 185.575 249.55C186.272 250.319 186.809 251.219 187.154 252.198C187.5 253.176 187.646 254.214 187.586 255.25C187.526 256.286 187.26 257.3 186.804 258.232C186.347 259.164 185.71 259.996 184.928 260.679C184.147 261.362 183.237 261.883 182.252 262.21C181.268 262.538 180.227 262.666 179.193 262.587C178.158 262.508 177.149 262.224 176.225 261.751C175.302 261.277 174.481 260.625 173.813 259.831C156.55 240.081 145.938 215.287 143.781 186.525C143.705 185.502 143.83 184.474 144.151 183.499C144.471 182.525 144.981 181.623 145.65 180.845C146.319 180.067 147.135 179.429 148.051 178.967C148.967 178.504 149.964 178.227 150.988 178.15ZM126.475 86.9C127.421 86.5019 128.279 85.9214 129.001 85.1917C129.722 84.4619 130.293 83.5972 130.681 82.6468C131.068 81.6965 131.264 80.6791 131.259 79.6529C131.253 78.6266 131.045 77.6115 130.647 76.6656C130.249 75.7197 129.668 74.8614 128.939 74.1398C128.209 73.4182 127.344 72.8474 126.394 72.46C125.443 72.0727 124.426 71.8762 123.4 71.882C122.374 71.8878 121.358 72.0957 120.413 72.4937C64.3376 96.075 36.3813 148.831 43.8126 211.85C43.9324 212.869 44.2518 213.854 44.7524 214.75C45.2531 215.645 45.9252 216.434 46.7305 217.069C47.5357 217.705 48.4583 218.176 49.4456 218.455C50.4329 218.735 51.4655 218.817 52.4844 218.697C53.5034 218.577 54.4888 218.258 55.3844 217.757C56.2799 217.256 57.0681 216.584 57.7039 215.779C58.3397 214.974 58.8106 214.051 59.0899 213.064C59.3691 212.077 59.4511 211.044 59.3313 210.025C52.6251 153.15 77.5001 107.494 126.475 86.8875V86.9Z" fill="url(#paint0_linear_3286_38876)"/>
<defs>
<linearGradient id="paint0_linear_3286_38876" x1="262.476" y1="268.557" x2="-10.345" y2="192.136" gradientUnits="userSpaceOnUse">
<stop stop-color="#007AFF"/>
<stop offset="1" stop-color="#6BA9EC"/>
</linearGradient>
</defs>
</svg>
