<svg width="339" height="250" viewBox="0 0 339 250" fill="none" xmlns="http://www.w3.org/2000/svg">
<g clip-path="url(#clip0_3286_38674)">
<path opacity="0.1" d="M3.64893 119.859C9.00195 140.542 20.3243 158.422 38.2171 167.089C75.4139 185.101 159.303 175.811 221.912 165.148C254.298 159.633 282.764 144.412 303.443 122.993L3.64893 119.859Z" fill="#007AFF"/>
<path opacity="0.1" d="M331.967 22.501H297.615C295.985 22.501 294.647 21.2932 294.647 19.8174C294.647 18.3416 295.985 17.1307 297.615 17.1307H303.557C301.923 17.1307 300.589 15.9229 300.589 14.444C300.589 12.9651 301.923 11.7604 303.557 11.7604H299.316C297.683 11.7604 296.345 10.5526 296.345 9.07373C296.345 7.59482 297.683 6.39013 299.316 6.39013H317.246C313.267 4.71712 308.617 3.52783 303.258 2.90238C254.366 -2.77601 236.91 0.979797 230.753 4.84036C223.078 9.71227 214.553 13.0928 205.624 14.8045C175.46 20.4336 119.048 27.2058 67.919 12.6478C42.5068 5.39803 23.6186 17.6329 12.2993 38.085H337.934C337.508 32.1416 336.236 26.6512 333.9 21.8478C333.346 22.2748 332.666 22.5047 331.967 22.501V22.501Z" fill="#007AFF"/>
<path opacity="0.1" d="M0.736361 76.6875C-0.583109 88.7165 -0.134582 100.874 2.06768 112.773L303.674 122.752C311.976 114.144 319.03 104.413 324.63 93.8459L0.736361 76.6875ZM120.025 102.43H114.087C115.72 102.43 117.057 103.641 117.057 105.116C117.057 106.592 115.72 107.8 114.087 107.8H79.7342C78.104 107.8 76.7665 106.592 76.7665 105.116C76.7665 103.641 78.104 102.43 79.7342 102.43H85.6759C84.0425 102.43 82.7081 101.222 82.7081 99.7461C82.7081 98.2703 84.0425 97.0594 85.6759 97.0594H81.4323C79.799 97.0594 78.4615 95.8517 78.4615 94.3758C78.4615 92.9 79.799 91.6892 81.4323 91.6892H115.785C117.418 91.6892 118.752 92.8969 118.752 94.3758C118.752 95.8548 117.418 97.0594 115.785 97.0594H120.025C121.659 97.0594 122.993 98.2672 122.993 99.7461C122.993 101.225 121.659 102.43 120.025 102.43Z" fill="#007AFF"/>
<path opacity="0.1" d="M337.946 38.2698L8.66553 45.5103C4.65924 54.8243 2.00276 65.3553 0.779297 76.2684H332.177C334.333 69.8836 335.934 63.3243 336.959 56.6637C337.949 50.252 338.343 44.0498 337.946 38.2698ZM67.635 62.0093H61.6965C63.3298 62.0093 64.6673 63.2202 64.6673 64.696C64.6673 66.1718 63.3298 67.3827 61.6965 67.3827H27.3441C25.7138 67.3827 24.3763 66.1718 24.3763 64.696C24.3763 63.2202 25.7138 62.0093 27.3441 62.0093H33.2857C31.6524 62.0093 30.318 60.8015 30.318 59.3257C30.318 57.8499 31.6524 56.639 33.2857 56.639H29.0421C27.4088 56.639 26.0713 55.4313 26.0713 53.9554C26.0713 52.4796 27.4088 51.2688 29.0421 51.2688H63.3945C65.0279 51.2688 66.3623 52.4765 66.3623 53.9554C66.3623 55.4343 65.0279 56.639 63.3945 56.639H67.635C69.2684 56.639 70.6028 57.8499 70.6028 59.3257C70.6028 60.8015 69.2684 62.0093 67.635 62.0093Z" fill="#007AFF"/>
<path opacity="0.1" d="M167.981 240.655C244.057 240.655 305.729 234.983 305.729 227.986C305.729 220.989 244.057 215.317 167.981 215.317C91.9041 215.317 30.2319 220.989 30.2319 227.986C30.2319 234.983 91.9041 240.655 167.981 240.655Z" fill="#007AFF"/>
<path d="M248.775 115.872L247.644 117.259C247.644 117.259 247.749 123.214 246.874 124.653C245.998 126.092 249.29 134.513 250.522 133.998C251.755 133.484 254.529 120.34 254.529 120.186C254.529 120.032 248.775 115.872 248.775 115.872Z" fill="#575A89"/>
<path d="M248.673 124.345C248.673 124.345 245.077 127.99 245.333 129.737C245.589 131.484 249.031 136.971 253.962 134.023C253.962 134.023 258.535 125.424 248.673 124.345Z" fill="#575A89"/>
<path opacity="0.1" d="M259.302 138.937C259.281 139.045 258.908 140.684 258.341 143.214C258.563 141.054 258.871 139.504 259.302 138.937Z" fill="black"/>
<path opacity="0.1" d="M262.643 92.1082C262.875 92.0898 263.108 92.1138 263.33 92.1791C263.657 92.342 263.952 92.5634 264.199 92.8323C264.601 93.1681 265.082 93.3965 265.596 93.4962C266.11 93.5958 266.641 93.5635 267.139 93.4023C267.491 93.2452 267.864 93.1414 268.246 93.0942C268.834 93.0942 269.343 93.5255 269.648 94.0185C269.953 94.5114 270.11 95.0968 270.372 95.6237C270.634 96.1506 271.053 96.6497 271.63 96.7791C271.906 96.7898 272.178 96.8526 272.431 96.964C272.586 97.09 272.705 97.2547 272.776 97.4415C273.257 98.4798 273.639 99.7061 274.665 100.214C275.043 100.389 275.454 100.479 275.87 100.476C276.293 100.507 276.717 100.431 277.103 100.255C277.482 100.043 277.796 99.7303 278.009 99.3518C278.65 98.2919 278.724 96.9794 278.573 95.75C278.385 94.1992 277.832 92.7148 276.961 91.4181C276.043 90.1065 274.794 89.0621 273.34 88.3914C271.886 87.7207 270.28 87.4478 268.686 87.6006C268.13 87.6632 267.579 87.7662 267.038 87.9087C265.078 88.4325 263.155 89.4123 261.965 91.0545C261.677 91.4644 261.361 91.8536 261.019 92.2191C261.558 92.1668 262.101 92.1205 262.643 92.1082Z" fill="black"/>
<path opacity="0.1" d="M254.784 109.042C254.784 109.042 255.145 111.919 253.912 112.637C252.68 113.355 254.784 109.042 254.784 109.042Z" fill="black"/>
<path opacity="0.1" d="M280.927 131.33C280.927 131.33 283.854 127.017 284.267 128.249C284.68 129.481 280.927 131.33 280.927 131.33Z" fill="black"/>
<path opacity="0.1" d="M281.134 132.766C281.134 132.766 284.021 129.223 284.298 130.609C284.575 131.996 281.134 132.766 281.134 132.766Z" fill="black"/>
<path opacity="0.1" d="M271.737 108.311C271.737 108.311 276.072 108.589 276.1 109.205C276.128 109.821 271.737 108.311 271.737 108.311Z" fill="black"/>
<path opacity="0.1" d="M261.203 105.683C261.203 105.683 256.868 105.961 256.84 106.577C256.812 107.193 261.203 105.683 261.203 105.683Z" fill="black"/>
<path opacity="0.1" d="M277.774 118.282C277.731 118.251 277.688 118.226 277.645 118.199C278.754 119.197 278.57 121.378 277.207 123.178C275.845 124.977 273.777 125.726 272.52 124.918C272.56 124.952 272.594 124.989 272.637 125.023C273.87 125.966 276.027 125.226 277.451 123.366C278.875 121.505 279.013 119.228 277.774 118.282Z" fill="black"/>
<path opacity="0.1" d="M253.956 122.947C252.859 120.968 253 118.784 254.242 117.955C254.196 117.977 254.147 117.995 254.101 118.02C252.739 118.778 252.56 121.049 253.688 123.094C254.816 125.14 256.85 126.175 258.212 125.43C258.257 125.404 258.3 125.375 258.341 125.344C256.982 125.96 255.053 124.925 253.956 122.947Z" fill="black"/>
<path opacity="0.1" d="M255.422 106.266L255.025 106.882L254.011 106.343L254.544 105.523C254.897 105.69 255.199 105.946 255.422 106.266V106.266Z" fill="black"/>
<path d="M248.982 129.069C248.982 129.069 249.885 124.823 248.674 123.473C247.462 122.124 247.851 115.05 249.7 115.204C251.549 115.358 254.322 120.953 253.86 122.136C253.398 123.319 251.651 129.377 251.651 129.377L248.982 129.069Z" fill="#FBBEBE"/>
<path d="M250.347 132.436C251.879 132.436 253.12 131.595 253.12 130.557C253.12 129.519 251.879 128.677 250.347 128.677C248.815 128.677 247.573 129.519 247.573 130.557C247.573 131.595 248.815 132.436 250.347 132.436Z" fill="#575A89"/>
<path d="M159.941 235.174C212.448 235.174 255.013 192.618 255.013 140.123C255.013 87.6284 212.448 45.0728 159.941 45.0728C107.434 45.0728 64.8682 87.6284 64.8682 140.123C64.8682 192.618 107.434 235.174 159.941 235.174Z" fill="#007AFF"/>
<path d="M209.825 187.889C209.825 202.894 186.231 189.171 160.936 189.171C135.64 189.171 110.056 202.327 110.056 187.322C110.056 178.766 118.21 166.867 129.908 158.225C138.722 151.711 149.545 147.047 160.418 147.047C171.598 147.047 182.551 152.096 191.288 159.029C202.314 167.77 209.825 179.515 209.825 187.889Z" fill="#444053"/>
<path d="M191.285 159.022C177.839 156.998 153.521 154.53 129.909 158.218C138.723 151.705 149.546 147.04 160.418 147.04C171.596 147.04 182.548 152.09 191.285 159.022Z" fill="#F6F8FB"/>
<path opacity="0.05" d="M110.056 73.0272C110.056 73.0272 81.4171 91.3318 81.6513 119.964C81.8855 148.596 110.056 73.0272 110.056 73.0272Z" fill="black"/>
<path d="M254.976 21.3301C254.976 21.3301 229.027 19.768 232.087 37.9462C232.087 37.9462 231.471 41.1567 234.392 42.6171C234.392 42.6171 234.439 41.2707 237.052 41.7267C237.983 41.8825 238.93 41.928 239.872 41.8623C241.145 41.7757 242.355 41.2759 243.317 40.4388V40.4388C243.317 40.4388 250.612 37.4286 253.45 25.508C253.45 25.508 255.549 22.9076 255.466 22.2421L251.086 24.1092C251.086 24.1092 252.581 27.2673 251.395 29.8924C251.395 29.8924 251.253 24.2263 250.411 24.3465C250.242 24.3742 248.137 25.4402 248.137 25.4402C248.137 25.4402 250.71 30.943 248.753 34.9391C248.753 34.9391 249.49 28.1608 247.317 25.8377L244.236 27.637C244.236 27.637 247.243 33.3185 245.203 37.9555C245.203 37.9555 245.727 30.8444 243.588 28.0745L240.793 30.2528C240.793 30.2528 243.619 35.8542 241.897 39.6994C241.897 39.6994 241.672 31.4206 240.189 30.7951C240.189 30.7951 237.745 32.9519 237.372 33.8361C237.372 33.8361 239.308 37.9 238.109 40.0444C238.109 40.0444 237.373 34.5294 236.768 34.4985C236.768 34.4985 234.334 38.1527 234.078 40.6607C234.078 40.6607 234.186 36.9326 236.177 34.1504C236.177 34.1504 233.822 34.554 232.451 36.0822C232.451 36.0822 232.83 33.4972 236.765 33.2723C236.765 33.2723 238.778 30.4993 239.317 30.333C239.317 30.333 235.388 30.0033 233.006 31.0601C233.006 31.0601 235.101 28.623 240.035 29.7291L242.809 27.4799C242.809 27.4799 237.638 26.7713 235.443 27.5538C235.443 27.5538 237.967 25.3971 243.551 26.9684L246.556 25.1722C246.556 25.1722 242.146 24.2232 239.517 24.556C239.517 24.556 242.291 23.0617 247.434 24.6823L249.592 23.7179C249.592 23.7179 246.359 23.0832 245.413 22.9846C244.467 22.886 244.417 22.6211 244.417 22.6211C246.47 22.2874 248.576 22.5317 250.498 23.3266C250.498 23.3266 255.053 21.6166 254.976 21.3301Z" fill="#007AFF"/>
<path d="M228.362 13.2485C228.362 13.2485 216.651 12.5399 218.019 20.754C218.019 20.754 217.745 22.2051 219.061 22.8645C219.061 22.8645 219.08 22.2483 220.263 22.4639C220.683 22.5331 221.11 22.5538 221.536 22.5256C222.111 22.4845 222.658 22.2586 223.095 21.8816V21.8816C223.095 21.8816 226.389 20.5198 227.671 15.1341C227.671 15.1341 228.621 13.9602 228.596 13.6583L226.618 14.5025C226.618 14.5025 227.296 15.929 226.762 17.1152C226.762 17.1152 226.698 14.5549 226.319 14.6165C226.242 14.6165 225.289 15.1095 225.289 15.1095C225.289 15.1095 226.454 17.5959 225.576 19.4014C225.576 19.4014 225.909 16.3388 224.929 15.2882L223.536 16.1016C223.536 16.1016 224.895 18.6712 223.973 20.7663C223.973 20.7663 224.208 17.5527 223.243 16.3018L221.979 17.2847C221.979 17.2847 223.255 19.8142 222.479 21.5519C222.479 21.5519 222.377 17.8115 221.705 17.5281C221.705 17.5281 220.602 18.5017 220.432 18.9022C220.432 18.9022 221.308 20.7509 220.765 21.7091C220.765 21.7091 220.432 19.2165 220.149 19.2073C220.149 19.2073 219.049 20.8556 218.935 21.9802C218.988 20.9337 219.314 19.9192 219.881 19.0378C219.247 19.1577 218.662 19.4609 218.198 19.9097C218.198 19.9097 218.368 18.742 220.152 18.6403C220.152 18.6403 221.061 17.3894 221.305 17.3124C221.305 17.3124 219.529 17.1645 218.454 17.6421C218.454 17.6421 219.4 16.5391 221.631 17.0259L222.864 16.0122C222.864 16.0122 220.528 15.7041 219.536 16.043C219.536 16.043 220.676 15.0694 223.2 15.7811L224.556 14.9677C224.556 14.9677 222.565 14.5395 221.375 14.6935C221.375 14.6935 222.63 14.0188 224.953 14.7521L225.924 14.3145C225.924 14.3145 224.463 14.028 224.038 13.9849C223.613 13.9417 223.585 13.8216 223.585 13.8216C224.51 13.6677 225.46 13.7744 226.328 14.1297C226.328 14.1297 228.396 13.3779 228.362 13.2485Z" fill="#007AFF"/>
<path opacity="0.1" d="M330.701 224.92C335.284 224.92 339 224.293 339 223.518C339 222.744 335.284 222.116 330.701 222.116C326.117 222.116 322.401 222.744 322.401 223.518C322.401 224.293 326.117 224.92 330.701 224.92Z" fill="#007AFF"/>
<path opacity="0.1" d="M14.4134 248.241C18.997 248.241 22.7126 247.613 22.7126 246.839C22.7126 246.065 18.997 245.437 14.4134 245.437C9.82993 245.437 6.11426 246.065 6.11426 246.839C6.11426 247.613 9.82993 248.241 14.4134 248.241Z" fill="#007AFF"/>
<path opacity="0.1" d="M62.5907 250C67.1742 250 70.8899 249.372 70.8899 248.598C70.8899 247.824 67.1742 247.196 62.5907 247.196C58.0072 247.196 54.2915 247.824 54.2915 248.598C54.2915 249.372 58.0072 250 62.5907 250Z" fill="#007AFF"/>
<path d="M312.537 240.637C319.381 240.637 324.929 239.699 324.929 238.542C324.929 237.384 319.381 236.446 312.537 236.446C305.693 236.446 300.145 237.384 300.145 238.542C300.145 239.699 305.693 240.637 312.537 240.637Z" fill="#007AFF"/>
<path d="M317.659 235.119C318.225 234.657 318.637 234.035 318.842 233.335C318.993 232.629 318.691 231.779 318.017 231.52C317.258 231.23 316.448 231.757 315.835 232.287C315.221 232.817 314.516 233.421 313.711 233.31C314.125 232.936 314.434 232.46 314.609 231.93C314.784 231.401 314.819 230.835 314.71 230.287C314.675 230.061 314.579 229.848 314.432 229.671C314.01 229.221 313.249 229.412 312.744 229.767C311.141 230.894 310.694 233.07 310.685 235.029C310.525 234.324 310.66 233.587 310.657 232.872C310.654 232.158 310.454 231.332 309.844 230.953C309.465 230.751 309.04 230.651 308.611 230.663C307.89 230.636 307.089 230.706 306.595 231.233C305.979 231.89 306.142 232.986 306.676 233.698C307.209 234.41 308.016 234.872 308.759 235.368C309.357 235.723 309.866 236.209 310.25 236.789C310.295 236.87 310.332 236.956 310.361 237.044H314.876C315.886 236.531 316.823 235.883 317.659 235.119V235.119Z" fill="#007AFF"/>
<path d="M18.2873 209.284C18.2873 209.284 19.9792 211.496 17.5046 214.83C15.0299 218.163 12.9898 220.992 13.8064 223.075C13.8064 223.075 17.5385 216.869 20.5863 216.78C23.6342 216.691 21.6279 213.015 18.2873 209.284Z" fill="#007AFF"/>
<path opacity="0.1" d="M18.2872 209.284C18.4342 209.498 18.5503 209.731 18.6324 209.977C21.597 213.459 23.1749 216.709 20.3274 216.789C17.6709 216.866 14.472 221.611 13.7231 222.81C13.7493 222.903 13.7802 222.994 13.8156 223.084C13.8156 223.084 17.5476 216.879 20.5955 216.789C23.6433 216.7 21.6279 213.015 18.2872 209.284Z" fill="black"/>
<path d="M21.4338 212.103C21.4338 212.883 21.3444 213.514 21.2366 213.514C21.1288 213.514 21.0425 212.898 21.0425 212.103C21.0425 211.308 21.1503 211.69 21.2612 211.69C21.3722 211.69 21.4338 211.324 21.4338 212.103Z" fill="#FFD037"/>
<path d="M22.4997 213.034C21.8157 213.406 21.2211 213.631 21.1687 213.536C21.1163 213.44 21.6309 213.064 22.3149 212.692C22.9989 212.319 22.7277 212.59 22.7801 212.692C22.8325 212.793 23.196 212.661 22.4997 213.034Z" fill="#FFD037"/>
<path d="M9.3437 209.284C9.3437 209.284 7.65182 211.496 10.1234 214.83C12.595 218.163 14.6382 220.992 13.8215 223.075C13.8215 223.075 10.0864 216.869 7.04163 216.78C3.99685 216.691 5.99999 213.015 9.3437 209.284Z" fill="#007AFF"/>
<path opacity="0.1" d="M9.34378 209.284C9.1955 209.497 9.07922 209.73 8.99862 209.977C6.03396 213.459 4.45302 216.709 7.30365 216.789C9.95705 216.866 13.159 221.611 13.9048 222.81C13.8796 222.903 13.8498 222.994 13.8154 223.084C13.8154 223.084 10.0803 216.879 7.03554 216.789C3.99076 216.7 6.00006 213.015 9.34378 209.284Z" fill="black"/>
<path d="M6.19727 212.103C6.19727 212.883 6.28354 213.514 6.39137 213.514C6.49921 213.514 6.58548 212.898 6.58548 212.103C6.58548 211.308 6.47764 211.69 6.36981 211.69C6.26197 211.69 6.19727 211.324 6.19727 212.103Z" fill="#FFD037"/>
<path d="M5.1156 213.034C5.79959 213.406 6.39732 213.631 6.4497 213.536C6.50207 213.44 5.98754 213.064 5.30354 212.692C4.61955 212.319 4.8876 212.59 4.8383 212.692C4.78901 212.793 4.4316 212.661 5.1156 213.034Z" fill="#FFD037"/>
<path d="M6.73682 222.794C6.73682 222.794 11.4704 222.65 12.9003 221.633C14.3303 220.616 20.1825 219.405 20.5369 221.017C20.8913 222.628 27.6497 229.12 22.3059 229.163C16.9621 229.206 9.88946 228.328 8.46569 227.462C7.04191 226.596 6.73682 222.794 6.73682 222.794Z" fill="#A8A8A8"/>
<path opacity="0.2" d="M22.3953 228.611C17.0515 228.654 9.97883 227.776 8.55506 226.911C7.47028 226.251 7.03883 223.882 6.89399 222.788H6.73682C6.73682 222.788 7.04499 226.606 8.45952 227.471C9.87405 228.337 16.9559 229.215 22.2997 229.172C23.8406 229.172 24.3737 228.608 24.346 227.798C24.1303 228.294 23.5447 228.602 22.3953 228.611Z" fill="black"/>
<path d="M126.14 127.66C127.949 127.559 136.464 126.918 141.872 123.834C142.741 123.323 143.722 123.034 144.729 122.993C146.448 122.943 148.427 123.661 147.16 127.679C145.108 134.251 133.191 141.645 125.794 141.236C118.682 140.841 110.244 137.976 104.672 127.901C104.138 126.932 103.875 125.836 103.911 124.73C103.976 122.697 104.715 120.149 108.534 122.99C113.692 126.826 123.48 127.553 125.443 127.66C125.675 127.673 125.908 127.673 126.14 127.66V127.66Z" fill="#444053"/>
<path d="M194.555 127.66C196.364 127.559 204.879 126.918 210.287 123.834C211.156 123.323 212.137 123.034 213.144 122.993C214.864 122.943 216.842 123.661 215.575 127.679C213.523 134.251 201.606 141.645 194.21 141.236C187.097 140.841 178.659 137.976 173.087 127.901C172.553 126.932 172.29 125.836 172.326 124.73C172.391 122.697 173.13 120.149 176.949 122.99C182.107 126.826 191.895 127.553 193.858 127.66C194.09 127.673 194.323 127.673 194.555 127.66V127.66Z" fill="#444053"/>
</g>
<defs>
<clipPath id="clip0_3286_38674">
<rect width="339" height="250" fill="white"/>
</clipPath>
</defs>
</svg>
