<svg width="327" height="201" viewBox="0 0 327 201" fill="none" xmlns="http://www.w3.org/2000/svg">
<path d="M173.553 81.5377C181.292 81.5377 187.565 75.2641 187.565 67.5253C187.565 59.7864 181.292 53.5128 173.553 53.5128C165.814 53.5128 159.541 59.7864 159.541 67.5253C159.541 75.2641 165.814 81.5377 173.553 81.5377Z" fill="#10B981"/>
<path d="M171.482 74.7955L164.7 69.5775C164.094 69.1085 163.997 68.2486 164.446 67.6623C164.915 67.0564 165.775 66.9587 166.361 67.4082L171.13 71.0823L180.53 60.7049C181.038 60.1382 181.898 60.0991 182.465 60.6072C183.032 61.1153 183.071 61.9752 182.563 62.5419L171.482 74.7955Z" fill="white"/>
<path d="M60.5547 63.7729C68.952 63.7729 75.7593 56.9656 75.7593 48.5683C75.7593 40.1711 68.952 33.3638 60.5547 33.3638C52.1574 33.3638 45.3501 40.1711 45.3501 48.5683C45.3501 56.9656 52.1574 63.7729 60.5547 63.7729Z" fill="white"/>
<path d="M61.0433 64.7501C52.3856 64.7501 45.3501 57.7145 45.3501 49.0569C45.3501 40.3993 52.3856 33.3638 61.0433 33.3638C69.7009 33.3638 76.7364 40.3993 76.7364 49.0569C76.7364 57.7145 69.7009 64.7501 61.0433 64.7501ZM61.0433 34.3409C52.9329 34.3409 46.3273 40.9465 46.3273 49.0569C46.3273 57.1673 52.9329 63.7729 61.0433 63.7729C69.1537 63.7729 75.7593 57.1673 75.7593 49.0569C75.7593 40.9465 69.1537 34.3409 61.0433 34.3409Z" fill="black"/>
<path d="M68.5867 40.9465L64.7953 42.8813C61.4143 39.5394 57.6425 39.6176 54.5351 41.5328C50.9392 43.7412 49.0044 50.0146 51.6818 54.8808C52.2877 55.9557 53.1866 56.7961 54.0856 57.5192C51.0174 55.5453 48.9653 52.0862 48.9653 48.158C48.9653 42.0214 53.9488 37.0379 60.0854 37.0379C63.5055 37.0184 66.5542 38.5427 68.5867 40.9465Z" fill="#F9DD7E"/>
<path d="M70.6586 41.8064L62.4114 46.0473C61.8642 45.6564 61.1997 45.4023 60.4766 45.4023C58.6786 45.4023 57.2324 46.8485 57.2324 48.6465C57.2324 50.4445 58.6786 51.8907 60.4766 51.8907C62.2746 51.8907 63.7207 50.4445 63.7207 48.6465C63.7207 48.3534 63.6817 48.0798 63.623 47.8257L70.6586 41.8064ZM60.4766 50.1318C59.6558 50.1318 59.0108 49.4673 59.0108 48.666C59.0108 47.8648 59.6753 47.2003 60.4766 47.2003C61.2779 47.2003 61.9423 47.8648 61.9423 48.666C61.9423 49.4673 61.2779 50.1318 60.4766 50.1318Z" fill="#298FFF"/>
<path d="M186.256 15.0129H178.048V14.0358H185.885C186.08 13.4495 186.588 12.316 187.663 11.6515C188.425 11.1825 189.324 11.0261 190.34 11.202C190.692 9.50177 192.002 7.00024 195.246 7.00024C196.516 7.00024 198.725 7.64517 199.487 9.93172C200.21 9.65811 201.539 9.32588 202.848 9.85354C203.982 10.3226 204.842 11.3193 205.369 12.8437H209.512V13.8208H204.666L204.568 13.469C204.138 12.0424 203.434 11.1238 202.496 10.7525C201.031 10.1467 199.428 11.0066 199.409 11.0261L198.822 11.3388L198.685 10.6939C198.256 8.54416 196.321 7.95786 195.265 7.95786C191.65 7.95786 191.279 11.6515 191.259 11.8079L191.2 12.3746L190.634 12.2183C189.676 11.9642 188.855 12.0424 188.191 12.4333C187.077 13.1173 186.745 14.5635 186.745 14.583L186.666 14.9739L186.256 15.0129Z" fill="black"/>
<path d="M268.631 46.1841C275.538 46.1841 281.138 40.5842 281.138 33.6765C281.138 26.7687 275.538 21.1688 268.631 21.1688C261.723 21.1688 256.123 26.7687 256.123 33.6765C256.123 40.5842 261.723 46.1841 268.631 46.1841Z" fill="#F87171"/>
<path d="M233.844 42.0801H281.725C281.725 42.0801 280.161 36.0217 275.08 37.976C275.08 37.976 273.126 31.1359 265.895 34.4582C265.895 34.4582 255.732 20.5826 243.615 38.1714C243.615 38.1714 237.948 34.0674 233.844 42.0801Z" fill="white"/>
<path d="M282.35 42.5686H233.042L233.414 41.8651C234.88 39.0118 236.697 37.3115 238.847 36.8034C240.938 36.2953 242.716 37.077 243.498 37.5265C247.544 31.7808 251.823 28.8493 256.221 28.7907C261.439 28.7125 265.093 32.6993 266.051 33.8719C268.318 32.9143 270.311 32.8166 272.012 33.5983C274.044 34.5364 275.021 36.4712 275.393 37.3701C276.722 36.9597 277.933 37.0379 279.028 37.6046C281.373 38.8163 282.174 41.8455 282.213 41.9823L282.35 42.5686ZM234.665 41.5915H281.041C280.708 40.7316 279.927 39.1486 278.559 38.445C277.601 37.9564 276.487 37.9564 275.256 38.4255L274.748 38.6209L274.591 38.1128C274.591 38.0932 273.81 35.494 271.562 34.4582C270.057 33.7742 268.22 33.911 266.07 34.9077L265.699 35.0836L265.465 34.7709C265.426 34.7123 261.673 29.6897 256.182 29.7678C252.019 29.8265 247.915 32.7579 243.987 38.4646L243.694 38.875L243.283 38.5818C243.264 38.5623 241.329 37.1943 239.003 37.761C237.381 38.1519 235.915 39.4417 234.665 41.5915Z" fill="black"/>
<path d="M126.258 29.6703H116.487V28.6931H125.496C125.731 27.9505 126.415 26.3479 127.861 25.7616C128.819 25.3708 129.913 25.488 131.105 26.133C131.652 25.0581 132.981 23.7682 135.346 24.2177L135.17 25.1754C132.512 24.6868 131.848 26.8756 131.828 26.9733L131.652 27.5987L131.105 27.2469C129.991 26.5434 129.034 26.3479 128.252 26.6606C126.845 27.2274 126.376 29.2599 126.356 29.2794L126.258 29.6703Z" fill="black"/>
<path d="M75.1528 160.121C75.1528 160.121 79.4523 167.742 109.158 170.283C109.158 170.283 126.356 170.479 128.897 161.684L127.919 155.626L77.1071 153.867L75.1528 160.121Z" fill="#122344"/>
<path d="M123.875 64.9648C123.875 64.9648 130.011 66.4501 132.396 61.8574C132.943 60.8216 132.962 59.6686 132.376 58.6524C131.751 57.5775 130.363 56.444 127.354 57.0107C126.005 57.2648 123.543 57.7729 122.565 59.7272L123.875 64.9648Z" fill="#1545A8"/>
<path d="M126.083 65.6879C124.754 65.6879 123.777 65.4534 123.757 65.4534L123.464 65.3752L122.038 59.6882L122.116 59.5318C123.23 57.3039 125.946 56.7958 127.256 56.5417C130.539 55.9163 132.083 57.2062 132.786 58.4179C133.451 59.5514 133.47 60.8608 132.825 62.092C131.282 65.1016 128.213 65.6879 126.083 65.6879ZM124.266 64.5544C125.458 64.7694 130.031 65.3557 131.966 61.6425C132.454 60.7239 132.435 59.7468 131.946 58.9064C131.145 57.558 129.64 57.0889 127.432 57.4993C126.318 57.7143 124.031 58.1442 123.073 59.8054L124.266 64.5544Z" fill="#1545A8"/>
<path d="M125 59.2384C125 59.2384 125.477 68.3068 122.291 71.9614L121 59.7384L125 59.2384Z" fill="#F4CA3B"/>
<path d="M104.976 74.9905C104.976 74.9905 108.709 84.4884 116.683 83.0422C116.683 83.0422 123.034 82.2605 123.445 72.8212L123.718 59.4341L104.859 58.2224L104.253 67.6422C104.253 67.6422 101.263 68.0331 101.673 71.0232C102.084 74.0133 104.976 74.9905 104.976 74.9905Z" fill="#FFD7C4"/>
<path d="M108.006 61.5837C108.006 61.5837 101.83 62.3264 101.889 63.0886C101.967 64.2807 102.162 66.0787 102.748 68.0721C102.748 68.0721 105.289 66.8995 106.344 69.1665L107.712 69.4596L108.006 61.5837Z" fill="#F4CA3B"/>
<path d="M102.065 57.5775C103.296 52.6526 110.038 49.3889 117.23 51.4996C121.647 52.8089 122.956 56.0922 122.956 56.0922L117.992 57.5775C117.992 57.5775 113.654 60.0595 111.27 62.092C109.374 63.7141 107.4 64.3003 106.13 64.4958C101.986 65.1016 102.241 64.4762 102.241 64.4762C101.498 62.3069 101.596 59.4341 102.065 57.5775Z" fill="#007AFF"/>
<path d="M103.315 65.2386C102.182 65.2386 102.006 65.0041 101.889 64.8478C101.811 64.7501 101.771 64.6523 101.771 64.5546C101.009 62.2485 101.146 59.278 101.596 57.4605C102.143 55.2912 103.706 53.3759 105.993 52.0665C109.217 50.2295 113.361 49.8582 117.367 51.0503C121.96 52.4183 123.347 55.7798 123.406 55.9166L123.601 56.4051L118.188 58.0272C117.719 58.3008 113.79 60.5874 111.602 62.4635C109.491 64.281 107.322 64.8087 106.227 64.965C104.859 65.18 103.941 65.2386 103.315 65.2386ZM102.67 64.2224C102.925 64.281 103.706 64.3592 106.071 64.0074C107.068 63.8706 109.041 63.382 110.957 61.7209C113.361 59.6688 117.582 57.2455 117.758 57.1478L117.797 57.1282L122.253 55.7993C121.705 54.8808 120.22 52.9069 117.093 51.9884C113.341 50.8744 109.471 51.2262 106.481 52.9264C104.429 54.099 103.022 55.7993 102.553 57.7145C102.123 59.3757 101.986 62.1117 102.67 64.2224Z" fill="#125AED"/>
<path d="M108.494 63.5381C108.494 63.5381 117.015 66.5086 122.565 59.7467C122.565 59.7467 125.497 55.3886 131.008 57.3429C131.008 57.3429 128.291 54.6068 121.158 56.698C119.223 57.2647 116.976 57.7338 113.888 59.7467C110.996 61.6619 109.432 63.4013 108.494 63.5381Z" fill="#298FFF"/>
<path d="M127.705 199.793L125.477 154.629L85.1203 152.577C80.1172 162.368 74.5083 199.793 74.5083 199.793H100.266L102.69 190.94L103.862 199.793H127.705Z" fill="#A3CFFF"/>
<path d="M117.913 86.8728C117.913 86.8728 117.561 95.0419 102.689 85.4266L87.3673 90.6447C83.2046 92.0713 79.9018 95.2959 78.4361 99.4391L71.127 119.92L82.6183 122.266L75.2896 159.593C75.2896 159.593 85.3349 155.821 100.774 156.017C114.689 156.192 128.76 161.45 128.76 161.45L128.095 116.227L141.697 116.93L136.323 100.358C135.072 96.4881 132.238 93.3221 128.525 91.6609L117.913 86.8728Z" fill="#007AFF"/>
<path d="M199.077 91.7587H114.963V143.587H199.077V91.7587Z" fill="#F8B843"/>
<path d="M199.076 91.7587H150.121V143.587H199.076V91.7587Z" fill="#FFD381"/>
<path d="M127.177 91.7587V112.474L131.73 106.514L136.303 112.474V91.7587H127.177Z" fill="#FFD88F"/>
<path d="M176.456 119.688L176.532 126.575C175.727 126.667 176.164 126.618 175.373 126.671C174.708 126.678 174.258 126.683 173.73 126.689C173.438 126.692 173.106 126.696 172.232 126.705C171.795 126.71 171.669 126.667 170.941 126.675C170.598 126.679 165.755 126.256 165.755 126.256C165.755 126.256 170.863 124.577 170.523 124.581C170.958 120.622 172.318 117.069 172.294 114.881C169.907 114.227 170.247 114.223 167.859 113.569C169.899 113.547 169.899 113.547 171.939 113.525C170.576 113.2 164.429 110.886 164.386 110.883C164.384 110.746 171.228 110.613 171.226 110.472C171.221 109.99 160.397 106.872 160.647 106.616C160.92 106.338 171.849 105.214 171.849 105.214C173.701 105.004 174.567 104.995 174.567 104.995C175.885 104.879 176.64 104.972 177.812 104.959C181.027 105.114 183.378 105.565 185 106.88C186.623 108.194 187.446 109.989 187.471 112.263C187.487 113.687 187.133 114.908 186.409 115.927C185.685 116.946 184.82 117.736 183.816 118.298C184.655 119.415 185.482 120.463 186.296 121.442C187.111 122.421 190.15 125.87 190.618 126.669C189.786 126.678 189.599 126.684 187.913 126.698C186.337 126.716 185.903 126.72 185 126.73C184.013 126.741 183.864 126.686 183.644 126.659C183.425 126.632 178.777 126.454 178.093 126.121C181.416 125.523 181.79 125.456 182.609 125.31L180.172 119.648L176.456 119.688ZM178.577 115.082C179.45 115.073 180.63 114.91 181.131 114.445C181.631 113.98 182.138 113.266 182.128 112.393C182.119 111.521 181.43 110.701 180.746 110.368C180.062 110.036 179.047 109.77 177.83 109.783C177.486 109.787 177.21 109.802 177.004 109.827C176.797 109.852 176.568 109.889 176.316 109.938L176.372 115.106L178.577 115.082Z" fill="#007AFF"/>
<path d="M71.6746 120.018C71.6746 120.018 62.9779 141.594 70.932 144.76C79.0815 148.004 122.174 144.35 122.174 144.35L133.939 146.441L144.688 143.529C144.688 143.529 144.688 138.623 139.099 138.623C135.034 138.623 128.135 135.008 128.135 135.008C128.135 135.008 130.617 127.855 126.786 127.621L120.982 134.793L87.8954 130.962L91.4718 122.852L71.6746 120.018Z" fill="#FFD7C4"/>
<path d="M109.647 166.617L101.542 193.26L102.477 193.544L110.581 166.901L109.647 166.617Z" fill="black"/>
<path d="M94.0691 114.005L89.7695 123.191L90.6545 123.606L94.9541 114.419L94.0691 114.005Z" fill="white"/>
<path d="M223.193 152.038L232.144 199.743H257.198L251.101 149.654L223.193 152.038Z" fill="#1545A8"/>
<path d="M257.745 200.232H231.733L222.606 151.608L251.53 149.146L257.745 200.232ZM232.554 199.255H256.651L250.67 150.182L223.759 152.488L232.554 199.255Z" fill="#1545A8"/>
<path d="M256.709 118.299C256.709 118.299 264.312 142.786 241.759 139.601L240.293 118.983L256.709 118.299Z" fill="#CF9172"/>
<path d="M240.977 149.42L223.564 199.743H199.233L206.62 147.739L240.977 149.42Z" fill="#1545A8"/>
<path d="M199.741 118.181L208.77 122.266L204.236 153.281C204.236 153.281 230.717 164.811 253.367 153.281L249.771 119.881L257.823 119.158L246.918 94.573L231.694 90.5081L223.466 91.1334L212.678 95.7651C209.121 97.2895 206.346 100.221 205.017 103.836L199.741 118.181Z" fill="#A3CFFF"/>
<path d="M218.561 61.4277C218.561 61.4277 209.962 84.5668 222.137 84.8209V95.3156H236.697V63.0889L218.561 61.4277Z" fill="#CF9172"/>
<path d="M256.123 84.6843C252.781 83.6094 248.951 84.0198 246.586 74.4241C245.022 68.1117 242.892 57.5974 227.258 57.0112C222.606 56.8353 212.229 57.9688 219.147 72.9975C219.147 72.9975 222.04 81.7137 220.809 96.3906C219.792 108.703 225.46 135.633 259.113 121.562C269.901 117.028 281.783 92.912 256.123 84.6843Z" fill="#122344"/>
<path d="M199.839 117.712L194.66 132.878L172.576 140.675L161.671 139.386C161.671 139.386 161.006 141.516 165.032 143.529H153.619C153.619 143.529 156.844 145.366 168.531 148.239C168.531 148.239 201.226 143.49 205.526 140.167C208.829 137.607 216.861 122.774 216.861 122.774L199.839 117.712Z" fill="#CF9172"/>
<path d="M236.269 162.901L228.844 184.98L229.77 185.292L237.195 163.212L236.269 162.901Z" fill="white"/>
<path d="M282.233 199.5H51.3496V200.477H282.233V199.5Z" fill="black"/>
</svg>
