<svg width="199" height="101" viewBox="0 0 199 101" fill="none" xmlns="http://www.w3.org/2000/svg">
<path d="M26.8481 60.0448C26.8481 60.0448 19.2357 59.2768 17.9556 67.1623C17.9556 67.1452 25.329 67.6572 26.8481 60.0448Z" fill="#10B981"/>
<path d="M26.5173 59.6743L17.8315 66.6045L18.3638 67.2716L27.0496 60.3415L26.5173 59.6743Z" fill="white"/>
<path d="M25.107 84.2304C22.0177 78.0859 22.9052 69.6713 22.9052 69.6713H20.9936H17.5629H15.6513C15.6513 69.6713 16.5388 78.1029 13.4495 84.2304C11.6573 87.7976 8.58507 91.8939 12.1011 100.155H17.5629H20.9936H26.4554C29.9885 91.8939 26.9162 87.7976 25.107 84.2304Z" fill="#E0EFFF"/>
<path d="M19.3721 96.8097L18.5187 96.7244C20.8741 73.9043 15.6171 59.9596 15.5659 59.8231L16.3681 59.5159C16.4193 59.6524 21.7446 73.7507 19.3721 96.8097Z" fill="#065F46"/>
<path d="M7.33887 49.4628L18.6721 46.3223L20.891 54.3784C21.7614 57.5019 19.9181 60.7448 16.7946 61.6153C13.6711 62.4858 10.4282 60.6424 9.55772 57.5189L7.33887 49.4628Z" fill="#007AFF"/>
<path d="M7.45338 49.0476L7.30762 49.8884L20.0046 52.0894L20.1504 51.2486L7.45338 49.0476Z" fill="white"/>
<path d="M18.449 45.9999L13.4102 50.1913L13.9559 50.8474L18.9947 46.656L18.449 45.9999Z" fill="white"/>
<path d="M142.16 68H59.3286C53.406 68 48.6099 72.7961 48.6099 78.7188C48.6099 84.6414 53.406 89.4376 59.3286 89.4376H125.502L135.452 100.361V89.4376H142.16C148.083 89.4376 152.879 84.6414 152.879 78.7188C152.879 72.7961 148.083 68 142.16 68Z" fill="#F9DD7E"/>
<path d="M64.8928 73.0519L66.7362 76.7727L70.8496 77.3701L67.8627 80.2887L68.5625 84.3851L64.8928 82.4393L61.2061 84.3851L61.9059 80.2887L58.936 77.3701L63.0495 76.7727L64.8928 73.0519Z" fill="#F59E0B"/>
<path d="M82.8825 73.052L84.7088 76.7728L88.8393 77.3702L85.8524 80.2889L86.5522 84.3852L82.8825 82.4395L79.1958 84.3852L79.8956 80.2889L76.9087 77.3702L81.0392 76.7728L82.8825 73.052Z" fill="#F59E0B"/>
<path d="M100.838 73.052L102.681 76.7728L106.795 77.3702L103.825 80.2889L104.525 84.3852L100.838 82.4395L97.1685 84.3852L97.8683 80.2889L94.8813 77.3702L98.9948 76.7728L100.838 73.052Z" fill="#F59E0B"/>
<path d="M118.811 73.052L120.655 76.7728L124.768 77.3702L121.798 80.2889L122.498 84.3852L118.811 82.4395L115.125 84.3852L115.841 80.2889L112.854 77.3702L116.968 76.7728L118.811 73.052Z" fill="#F59E0B"/>
<path d="M136.596 73.052L138.439 76.7728L142.553 77.3702L139.583 80.2889L140.283 84.3852L136.596 82.4395L132.909 84.3852L133.626 80.2889L130.639 77.3702L134.753 76.7728L136.596 73.052Z" fill="#F59E0B"/>
<path d="M187.032 79.8346C184.557 77.3085 180.495 77.2573 177.969 79.7151L175.972 81.6609L173.975 79.7151C171.449 77.2403 167.387 77.2915 164.912 79.8346C162.437 82.3607 162.488 86.4229 165.031 88.8978L175.955 99.5654L175.972 99.5483L175.989 99.5654L186.913 88.8978C189.456 86.44 189.507 82.3778 187.032 79.8346Z" fill="url(#paint0_linear_3286_35727)"/>
<path d="M175.989 100.163H175.955L164.724 89.205C162.027 86.5765 161.976 82.2412 164.605 79.5445C165.885 78.2302 167.592 77.5134 169.418 77.4792C171.244 77.4451 172.968 78.1449 174.282 79.425L175.989 81.0806L177.696 79.425C180.393 76.7965 184.728 76.8477 187.357 79.5445C189.985 82.2412 189.934 86.5765 187.237 89.205L175.989 100.163ZM175.972 98.9338L176.006 98.968L186.623 88.6076C188.978 86.3034 189.029 82.5143 186.725 80.1418C185.616 78.9983 184.114 78.3497 182.509 78.3326C180.905 78.3156 179.403 78.9129 178.259 80.0394L175.955 82.2754L173.651 80.0394C172.507 78.93 170.988 78.3326 169.401 78.3326C167.796 78.3497 166.312 78.9983 165.185 80.1418C162.881 82.4972 162.932 86.3034 165.287 88.6076L175.904 98.968L175.972 98.9338Z" fill="url(#paint1_linear_3286_35727)"/>
<path d="M193.057 55.5976C191.162 53.6519 188.056 53.6177 186.11 55.5123L184.574 57.0143L183.038 55.5123C181.092 53.6177 177.986 53.6519 176.091 55.5976C174.197 57.5434 174.231 60.6498 176.177 62.5444L184.557 70.72L184.574 70.7029L184.591 70.72L192.972 62.5444C194.917 60.6498 194.951 57.5434 193.057 55.5976Z" fill="url(#paint2_linear_3286_35727)"/>
<path d="M184.591 71.3177H184.574L175.887 62.8519C174.862 61.8619 174.299 60.5136 174.282 59.0969C174.265 57.6803 174.811 56.3148 175.801 55.3078C176.791 54.3008 178.14 53.7205 179.556 53.7034C180.99 53.6863 182.338 54.2325 183.345 55.2225L184.574 56.4343L185.803 55.2225C186.827 54.2325 188.176 53.6863 189.592 53.7034C191.026 53.7205 192.357 54.3008 193.347 55.3078C194.337 56.3319 194.883 57.6803 194.866 59.0969C194.849 60.5136 194.269 61.8619 193.262 62.8519L184.591 71.3177ZM179.607 54.5397C179.59 54.5397 179.573 54.5397 179.556 54.5397C178.361 54.5568 177.235 55.0347 176.399 55.8881C175.562 56.7415 175.101 57.8851 175.118 59.0798C175.136 60.2746 175.613 61.4011 176.467 62.2374L184.54 70.1229L184.574 70.0888L184.591 70.1229L192.665 62.2374C193.518 61.4011 193.996 60.2746 194.013 59.0798C194.03 57.8851 193.569 56.7415 192.733 55.8881C191.896 55.0347 190.77 54.5568 189.575 54.5397C188.38 54.5227 187.237 54.9835 186.383 55.8198L184.557 57.612L182.731 55.8198C181.895 54.9835 180.785 54.5397 179.607 54.5397Z" fill="url(#paint3_linear_3286_35727)"/>
<path d="M175.818 39.5197C174.385 38.0518 172.046 38.0347 170.578 39.4514L169.418 40.5779L168.257 39.4514C166.789 38.0177 164.451 38.0518 163.017 39.5197C161.583 40.9875 161.618 43.3258 163.085 44.7596L169.401 50.9212L169.418 50.9041L169.435 50.9212L175.75 44.7596C177.218 43.3429 177.252 40.9875 175.818 39.5197Z" fill="url(#paint4_linear_3286_35727)"/>
<path d="M169.435 51.5355L162.812 45.0838C161.191 43.4964 161.157 40.8679 162.744 39.2465C163.512 38.4613 164.553 38.0176 165.646 38.0005C166.755 38.0005 167.796 38.4101 168.581 39.1782L169.435 40.0145L170.288 39.1782C171.073 38.4101 172.115 37.9834 173.224 38.0005C174.333 38.0176 175.358 38.4613 176.126 39.2465C177.713 40.8679 177.679 43.4964 176.057 45.0838L169.435 51.5355ZM165.697 38.8368C165.68 38.8368 165.663 38.8368 165.663 38.8368C164.792 38.8539 163.973 39.1953 163.359 39.8268C162.096 41.124 162.13 43.1892 163.41 44.4522L169.418 50.3066L169.435 50.2895L169.452 50.3066L175.46 44.4522C176.757 43.1892 176.774 41.1069 175.511 39.8268C174.897 39.1953 174.077 38.8539 173.207 38.8368C173.19 38.8368 173.173 38.8368 173.173 38.8368C172.319 38.8368 171.5 39.1611 170.886 39.7756L169.435 41.1922L167.984 39.7756C167.353 39.1611 166.55 38.8368 165.697 38.8368Z" fill="url(#paint5_linear_3286_35727)"/>
<path d="M39.3247 73.12H5.52979V99.2342H39.3247V73.12Z" fill="white"/>
<path d="M39.7513 99.6609H5.10303V72.6932H39.7513V99.6609ZM5.95643 98.8075H38.8979V73.5466H5.95643V98.8075Z" fill="black"/>
<path d="M33.2999 77.7793H11.5381V94.5914H33.2999V77.7793Z" fill="#125AED"/>
<path d="M28.0768 51.4264H5.52979V68.8529H28.0768V51.4264Z" fill="white"/>
<path d="M28.5034 69.2799H5.10303V51H28.5034V69.2799ZM5.95643 68.4265H27.65V51.8534H5.95643V68.4265Z" fill="black"/>
<path d="M24.066 54.533H9.54102V65.7467H24.066V54.533Z" fill="#125AED"/>
<path d="M13.5688 91.7925H31.149L26.882 86.672L24.1511 89.2323L19.5427 84.1118L13.5688 91.7925Z" fill="white"/>
<path d="M24.5775 84.2827C25.473 84.2827 26.199 83.5568 26.199 82.6613C26.199 81.7658 25.473 81.0398 24.5775 81.0398C23.682 81.0398 22.9561 81.7658 22.9561 82.6613C22.9561 83.5568 23.682 84.2827 24.5775 84.2827Z" fill="white"/>
<path d="M49.5144 60.7346C49.5144 60.7346 39.0858 81.643 35.5015 86.6611L55.7442 88.1289L66.4801 71.1291L49.5144 60.7346Z" fill="#CF9172"/>
<path d="M75.5435 22.6723L93.4138 14.8209C105.012 35.074 93.8077 36.3448 92.4807 36.4239C90.3231 36.763 82.713 34.616 79.1777 33.5001L75.5435 22.6723Z" fill="#CF9172"/>
<path d="M84.965 24.4817C84.965 24.4817 82.8315 21.2217 80.8857 23.7307C80.0664 24.7889 80.2712 27.4686 83.7702 28.2537C83.7702 28.2537 84.965 34.2276 78.9399 35.4565C78.9399 35.4565 70.4912 28.6122 72.1639 19.6343C72.1639 19.6343 61.9742 23.3893 59.2604 14.0531C58.4411 11.2539 59.6871 5.6214 65.917 4.4437C68.9892 3.86338 74.8436 4.78508 75.7482 12.2268C75.7482 12.2268 88.0543 3.41963 95.4277 16.4085C95.4448 16.4255 91.4509 23.5429 84.965 24.4817Z" fill="black"/>
<path d="M78.3424 40.5938L58.9189 49.2644C55.5053 50.7834 52.6207 53.3095 50.6579 56.4842L41.2192 71.7431L62.3837 77.5462L62.5544 86.9337L62.8957 100.076H107.956L108.177 76.5051L117.326 82.9227L126.133 64.7963L105.395 49.2302L93.5501 41.8909C93.5672 41.8909 94.3011 52.9681 78.3424 40.5938Z" fill="#125AED"/>
<path d="M98.0393 53.1213L95.8887 52.797L97.1517 44.3142L103.484 42.505C104.064 42.3343 104.662 42.6756 104.832 43.256C105.003 43.8363 104.662 44.4337 104.081 44.6044L99.0975 46.0381L98.0393 53.1213Z" fill="#A3CFFF"/>
<path d="M88.9419 54.3163L89.1638 52.6777C89.2491 52.0633 89.7782 51.6024 90.3927 51.6024H103.825C104.457 51.6024 104.969 52.0633 105.054 52.6777L105.276 54.3163H88.9419Z" fill="#298FFF"/>
<path d="M105.412 54.999L105.088 62.1506L104.935 65.7178L104.422 76.9998C104.371 78.2458 103.347 79.2187 102.101 79.2187H92.0822C90.8363 79.2187 89.8292 78.2458 89.761 76.9998L89.522 71.538L89.2319 65.018L88.7881 55.0161H105.412V54.999Z" fill="#A3CFFF"/>
<path d="M107.017 54.9988C107.017 55.5962 106.522 56.0912 105.924 56.0912H88.293C87.6957 56.0912 87.2007 55.5962 87.2007 54.9988C87.2007 54.4014 87.6957 53.9064 88.293 53.9064H105.907C106.522 53.8894 107.017 54.3843 107.017 54.9988Z" fill="#7ABAFF"/>
<path d="M49.9411 81.677C45.7765 81.5575 35.3308 81.0454 34.4945 89.5624C34.4945 89.5624 33.8459 99.5814 47.0395 98.1648L87.5934 85.7733C87.5934 85.7733 99.9507 81.0967 103.125 78.2804C103.125 78.2804 109.116 70.9753 105.566 62.1852C105.566 62.1852 97.8342 69.7634 89.5903 71.6409L89.3172 66.6741L84.8795 71.8287L83.5653 76.6931C83.5824 76.6931 63.6639 82.0695 49.9411 81.677Z" fill="#CF9172"/>
<path d="M131.492 24.3794C131.492 24.3794 130.025 21.034 127.089 20.6244L127.55 28.6805C127.191 30.3532 127.481 32.0942 128.386 33.5279L133.114 41.072L138.251 27.9637L132.329 29.0219L131.492 24.3794Z" fill="black"/>
<path d="M130.281 4.39272L137.654 1.32046C139.037 0.740147 140.539 1.76422 140.539 3.24915V29.9949C140.539 30.8312 140.026 31.5993 139.258 31.9236L131.885 34.9958C130.502 35.5762 129 34.5521 129 33.0672V6.32141C129 5.48507 129.513 4.71702 130.281 4.39272Z" fill="#A3CFFF"/>
<path d="M130.178 41.7206C130.178 41.7206 107.375 76.2323 116.268 82.4622C116.268 82.4622 125.177 89.9038 133.541 66.5205C133.541 66.5205 145.386 32.8281 140.146 18.9175C139.753 17.8593 139.429 16.8864 139.429 16.8864C138.32 15.265 134.035 18.3543 133.148 20.1123C131.868 22.6213 132.346 24.1063 132.824 26.4958C133.233 28.544 133.831 29.3291 134.565 32.8963L130.178 41.7206Z" fill="#CF9172"/>
<path d="M118.802 -3.08587e-05L118.281 0.675781L122.228 3.71895L122.749 3.04314L118.802 -3.08587e-05Z" fill="#1545A8"/>
<path d="M114.541 7.71495L114.538 8.56836L122.492 8.59621L122.495 7.74281L114.541 7.71495Z" fill="#1545A8"/>
<path d="M122.256 12.6439L118.411 15.6523L118.937 16.3245L122.782 13.316L122.256 12.6439Z" fill="#1545A8"/>
<path d="M67.9922 66.6211L62.0815 77.0625L62.8242 77.4829L68.7348 67.0415L67.9922 66.6211Z" fill="white"/>
<path d="M139.351 4.31387C139.394 3.77823 139.07 3.31551 138.629 3.28037C138.187 3.24524 137.795 3.65099 137.752 4.18664C137.709 4.72228 138.033 5.18498 138.475 5.22011C138.916 5.25525 139.309 4.84951 139.351 4.31387Z" fill="black"/>
<path d="M42.4655 33.7496C42.7898 33.7496 42.7898 33.2375 42.4655 33.2375C42.1241 33.2375 42.1241 33.7496 42.4655 33.7496Z" fill="black"/>
<path d="M108.98 77.2394L108.126 77.1711C108.468 72.5457 108.468 67.6983 108.468 67.6471H109.321C109.321 67.6983 109.321 72.5798 108.98 77.2394Z" fill="white"/>
<path d="M182.879 96.7875V98.8698C182.879 99.5013 183.391 100.013 184.023 100.013H190.492C191.123 100.013 191.635 99.5013 191.635 98.8698V96.7875H182.879Z" fill="#7ABAFF"/>
<path d="M190.492 100.44H184.023C183.152 100.44 182.453 99.74 182.453 98.8695V96.3605H192.045V98.8695C192.045 99.7229 191.345 100.44 190.492 100.44ZM183.306 97.2139V98.8695C183.306 99.262 183.63 99.5863 184.023 99.5863H190.492C190.884 99.5863 191.209 99.262 191.209 98.8695V97.2139H183.306Z" fill="#125AED"/>
<path d="M196.79 86.4437V88.9527C196.79 94.2097 192.523 98.4767 187.266 98.4767C184.638 98.4767 182.248 97.4185 180.524 95.6776C178.8 93.9537 177.725 91.5642 177.725 88.9357V86.4437H196.79Z" fill="#7ABAFF"/>
<path d="M187.249 98.9035C184.586 98.9035 182.094 97.8623 180.2 95.9848C178.322 94.1074 177.281 91.5984 177.281 88.9357V86H197.2V88.9357C197.217 94.4317 192.745 98.9035 187.249 98.9035ZM178.152 86.8705V88.9528C178.152 91.3765 179.09 93.6636 180.814 95.3875C182.538 97.1113 184.825 98.0501 187.249 98.0501C192.267 98.0501 196.346 93.9708 196.346 88.9528V86.8705H178.152Z" fill="#125AED"/>
<path d="M196.79 86.4438V86.4609C194.913 87.2461 191.345 87.7922 187.266 87.7922C183.187 87.7922 179.62 87.2631 177.742 86.4609V86.4438H196.79Z" fill="#7ABAFF"/>
<path d="M187.249 88.219C183.255 88.219 179.551 87.6899 177.554 86.8535L177.298 86.7511V86.0172H197.217V86.7511L196.961 86.8535C194.964 87.6899 191.243 88.219 187.249 88.219ZM180.883 86.8706C182.692 87.1778 184.911 87.3656 187.249 87.3656C189.587 87.3656 191.789 87.1949 193.615 86.8706H180.883Z" fill="#125AED"/>
<path d="M187.368 92.6907C187.129 92.6907 186.907 92.6907 186.669 92.6907C179.944 92.5371 177.588 90.4548 177.503 90.3694L178.083 89.7379C178.1 89.755 180.336 91.7008 186.703 91.8373C190.611 91.9226 193.888 91.257 196.705 89.772L197.097 90.523C194.298 91.9738 191.123 92.6907 187.368 92.6907Z" fill="#125AED"/>
<path d="M131.59 97.288C131.056 97.1767 129.361 96.135 128.58 95.628L167.58 95.4509C166.795 95.9688 165.082 97.0612 164.512 97.288C163.8 97.5716 132.256 97.4272 131.59 97.288Z" fill="#007AFF"/>
<ellipse cx="147.58" cy="92.4509" rx="32" ry="4" fill="#A3CFFF"/>
<ellipse cx="147.58" cy="92.9509" rx="24" ry="2.5" fill="#52A5FF"/>
<path d="M128.08 90.9509C128.07 90.9518 128.058 90.952 128.045 90.9514C127.313 90.9708 122.949 91.5396 123.08 91.9507C123.53 92.5698 123.956 93.9509 123.08 93.9509C121.952 93.9509 120.67 93.7557 120.08 92.9507C119.825 92.6021 119.708 90.9743 120.58 90.4509C123.034 88.9787 127.358 90.9236 128.045 90.9514C128.058 90.9511 128.07 90.9509 128.08 90.9509Z" fill="#991B1B"/>
<path d="M124.816 87.9867C124.244 84.6214 127.04 81.2376 128.798 80.5604C135.995 77.7872 149.929 79.3071 154.648 80.5604C159.336 81.8058 160.389 84.9927 160.636 85.7397L160.641 85.7538C160.879 86.4741 160.802 89.0599 159.122 89.7802C157.441 90.5006 149.369 89.6866 145.847 89.0599C143.03 88.5586 138.502 89.871 136.59 90.5899C135.826 91.9953 134.046 93 132.489 93C130.41 93 125.531 92.1933 124.816 87.9867Z" fill="#E7EAEE"/>
<path d="M135.451 84.4068C136.571 85.3 136.893 86.9134 136.97 89.0599C136.989 89.5999 136.847 90.1175 136.59 90.5899M136.59 90.5899C135.826 91.9953 134.046 93 132.489 93C130.41 93 125.531 92.1933 124.816 87.9867C124.244 84.6214 127.04 81.2376 128.798 80.5604C135.995 77.7872 149.929 79.3071 154.648 80.5604C159.366 81.8137 160.403 85.0335 160.641 85.7538C160.879 86.4741 160.802 89.0599 159.122 89.7802C157.441 90.5006 149.369 89.6866 145.847 89.0599C143.03 88.5586 138.502 89.871 136.59 90.5899Z" stroke="#A0ABBB" stroke-width="0.305429" stroke-linecap="round" stroke-linejoin="round"/>
<path d="M161.878 94.1264C153.182 95.8833 138.318 94.5809 135.254 93.7674C135.042 93.7111 134.898 93.5338 134.861 93.3171C134.262 89.7674 136.032 90.5569 137.022 91.4287C135.979 87.8506 138.047 88.2436 139.21 88.8874C139.009 85.0653 141.028 86.1376 142.063 87.1515C143.473 83.8925 144.751 85.2514 145.213 86.3383C146.793 82.5913 148.866 84.7771 149.705 86.3383C150.712 82.1034 152.698 84.5738 153.565 86.3383C155.78 82.9604 157.091 85.473 157.47 87.1515C159.453 84.0551 161.011 87.0186 161.543 88.8874C163.154 85.3093 164.847 88.1733 165.493 90.0525C166.536 88.1008 167.915 89.2393 168.475 90.0525C169.786 89.2768 170.532 91.0534 170.74 92.0386C170.575 92.7705 164.763 93.7354 161.878 94.1264Z" fill="#064E3B"/>
<path d="M156.877 90.4468C156.867 90.091 157.123 89.7721 157.368 89.5608C157.514 89.4354 157.728 89.4968 157.818 89.6669C157.884 89.7918 157.865 89.9447 157.767 90.0462C157.703 90.113 157.651 90.1664 157.586 90.249C157.489 90.3722 157.451 90.5344 157.489 90.6863C157.64 91.278 157.969 91.205 158.379 91.0345C158.622 90.9334 158.738 90.6584 158.834 90.4552C158.905 90.304 159.069 90.2723 159.223 90.3376C159.383 90.4055 159.506 90.5543 159.471 90.7243C159.402 91.0666 159.135 91.3518 159.015 91.4466C158.665 91.6577 157.71 91.9945 157.323 91.6831C156.839 91.2939 156.896 91.0802 156.877 90.4468Z" fill="#D06E18" stroke="#92400E" stroke-width="0.254524"/>
<path d="M157.698 93.1557C156.935 92.6307 156.892 91.52 156.89 90.8281C156.966 91.1791 156.955 91.9325 157.991 91.7591C159.304 91.5393 159.484 90.7772 159.41 90.4236C159.645 90.9527 160.097 92.1529 160.021 92.7207C159.925 93.4305 158.653 93.8121 157.698 93.1557Z" fill="#D06E18" stroke="#92400E" stroke-width="0.254524"/>
<path d="M150.571 92.7935C150.372 93.0839 150.43 93.5587 150.528 93.9128C150.578 94.0939 150.749 94.1759 150.895 94.1109C151.024 94.0535 151.099 93.8965 151.071 93.7323C151.057 93.6524 151.045 93.5825 151.037 93.4932C151.019 93.3104 151.079 93.1294 151.204 93.028C151.607 92.7008 151.828 92.9955 152.062 93.4206C152.204 93.6791 152.156 93.9844 152.129 94.2158C152.109 94.3906 152.215 94.5252 152.359 94.5811C152.533 94.6481 152.732 94.6066 152.791 94.4082C152.883 94.094 152.82 93.71 152.776 93.5567C152.605 93.134 152.016 92.1702 151.551 92.1358C150.97 92.0927 150.907 92.3042 150.571 92.7935Z" fill="#D06E18" stroke="#92400E" stroke-width="0.254524"/>
<path d="M152.596 91.2401C151.723 91.101 151.127 91.9524 150.775 92.5006C151.014 92.2773 151.386 91.6703 152.121 92.5628C153.053 93.6941 152.81 94.4306 152.572 94.6574C153.027 94.4086 153.994 93.7842 154.221 93.2775C154.504 92.6441 153.686 91.4139 152.596 91.2401Z" fill="#D06E18" stroke="#92400E" stroke-width="0.254524"/>
<path d="M138.932 92.5777C138.673 92.8113 138.643 93.3132 138.674 93.6896C138.688 93.8632 138.823 93.9729 138.97 93.9521C139.115 93.9315 139.23 93.788 139.234 93.6139C139.236 93.5393 139.239 93.4719 139.247 93.389C139.265 93.2079 139.364 93.0438 139.509 92.9802C139.959 92.7826 140.115 93.1299 140.258 93.6063C140.347 93.899 140.239 94.1836 140.168 94.4013C140.113 94.5668 140.186 94.7195 140.31 94.8101C140.472 94.9287 140.694 94.9384 140.792 94.7363C140.926 94.4601 140.939 94.0942 140.926 93.9394C140.842 93.4804 140.458 92.378 140.013 92.2138C139.456 92.0085 139.354 92.1965 138.932 92.5777Z" fill="#D06E18" stroke="#92400E" stroke-width="0.254524"/>
<path d="M139.253 92.3106C139.224 92.3223 139.202 92.3353 139.187 92.3496C139.208 92.3382 139.23 92.325 139.253 92.3106C139.389 92.2559 139.674 92.2283 140.062 92.2219C140.196 92.3219 140.338 92.4983 140.484 92.7884C141.169 94.1502 140.788 94.7979 140.513 94.9515C141.004 94.8375 147.878 95.3803 148.197 94.9515C148.597 94.4155 148.74 93.54 147.714 93.0644C147.046 92.7548 142.117 92.1885 140.062 92.2219C139.736 91.9799 139.453 92.1864 139.253 92.3106Z" fill="#D06E18"/>
<path d="M139.187 92.3496C139.637 91.9157 146.893 92.6839 147.714 93.0644C148.74 93.54 148.597 94.4155 148.197 94.9515C147.878 95.3803 141.004 94.8375 140.513 94.9515C140.788 94.7979 141.169 94.1502 140.484 92.7884C139.943 91.7142 139.463 92.1995 139.187 92.3496Z" stroke="#92400E" stroke-width="0.254524"/>
<path d="M152.902 92.6413C152.702 92.9317 152.76 93.4064 152.858 93.7606C152.908 93.9416 153.079 94.0236 153.225 93.9587C153.355 93.9013 153.43 93.7443 153.401 93.58C153.387 93.5002 153.375 93.4303 153.367 93.341C153.349 93.1581 153.41 92.9772 153.534 92.8758C153.937 92.5486 154.158 92.8433 154.392 93.2684C154.534 93.5268 154.487 93.8322 154.46 94.0635C154.439 94.2384 154.545 94.373 154.689 94.4289C154.863 94.4959 155.063 94.4544 155.121 94.256C155.213 93.9418 155.151 93.5578 155.106 93.4045C154.935 92.9818 154.346 92.018 153.881 91.9836C153.3 91.9405 153.237 92.152 152.902 92.6413Z" fill="#D06E18" stroke="#92400E" stroke-width="0.254524"/>
<path d="M154.925 91.0865C154.053 90.9474 153.457 91.7988 153.105 92.347C153.343 92.1237 153.715 91.5168 154.451 92.4092C155.383 93.5405 155.14 94.277 154.902 94.5039C155.357 94.255 156.323 93.6306 156.55 93.1239C156.834 92.4905 156.016 91.2604 154.925 91.0865Z" fill="#D06E18" stroke="#92400E" stroke-width="0.254524"/>
<path d="M161.603 91.6984C161.215 91.9224 160.759 92.6607 160.58 93.0019C160.58 93.3301 160.644 94.0523 160.899 94.315C161.218 94.6432 163.211 94.315 164.72 93.9867C165.926 93.7241 166.463 93.2207 166.58 93.0019C166.356 92.6929 165.71 91.9997 164.912 91.6984C163.916 91.3219 162.088 91.4185 161.603 91.6984Z" fill="#D06E18"/>
<path d="M197.734 87.4265H0.426758V99.2035H197.734V87.4265Z" fill="#F1A062"/>
<defs>
<linearGradient id="paint0_linear_3286_35727" x1="188.855" y1="99.5654" x2="159.148" y2="89.3258" gradientUnits="userSpaceOnUse">
<stop stop-color="#FA1637"/>
<stop offset="1" stop-color="#FD6D82"/>
</linearGradient>
<linearGradient id="paint1_linear_3286_35727" x1="189.294" y1="100.163" x2="158.512" y2="89.6866" gradientUnits="userSpaceOnUse">
<stop stop-color="#FA1637"/>
<stop offset="1" stop-color="#FD6D82"/>
</linearGradient>
<linearGradient id="paint2_linear_3286_35727" x1="194.455" y1="70.72" x2="171.676" y2="62.8603" gradientUnits="userSpaceOnUse">
<stop stop-color="#FA1637"/>
<stop offset="1" stop-color="#FD6D82"/>
</linearGradient>
<linearGradient id="paint3_linear_3286_35727" x1="194.867" y1="71.3177" x2="171.048" y2="63.2472" gradientUnits="userSpaceOnUse">
<stop stop-color="#FA1637"/>
<stop offset="1" stop-color="#FD6D82"/>
</linearGradient>
<linearGradient id="paint4_linear_3286_35727" x1="176.873" y1="50.9212" x2="159.687" y2="44.9894" gradientUnits="userSpaceOnUse">
<stop stop-color="#FA1637"/>
<stop offset="1" stop-color="#FD6D82"/>
</linearGradient>
<linearGradient id="paint5_linear_3286_35727" x1="177.295" y1="51.5355" x2="159.082" y2="45.4024" gradientUnits="userSpaceOnUse">
<stop stop-color="#FA1637"/>
<stop offset="1" stop-color="#FD6D82"/>
</linearGradient>
</defs>
</svg>
