<svg width="216" height="121" viewBox="0 0 216 121" fill="none" xmlns="http://www.w3.org/2000/svg">
<path d="M209.49 64.3982H140.911V77.643H209.49V64.3982Z" fill="black"/>
<path d="M209.917 78.0528H140.484V63.9716H209.917V78.0528ZM141.337 77.1993H209.064V64.825H141.337V77.1993Z" fill="black"/>
<path d="M215.822 61.5992H134.578V67.0781H215.822V61.5992Z" fill="#F1A062"/>
<path d="M207.681 38.6421V36.6622H195.818V38.6421C194.555 38.847 193.6 39.9393 193.6 41.2706V58.8849C193.6 60.3528 194.794 61.5475 196.262 61.5475H207.254C208.722 61.5475 209.917 60.3528 209.917 58.8849V41.2706C209.9 39.9393 208.944 38.847 207.681 38.6421Z" fill="#A3CFFF"/>
<path d="M196.502 37.2942H206.998C207.784 37.2942 208.432 36.6627 208.432 35.8605C208.432 35.0753 207.801 34.4268 206.998 34.4268H196.502C195.716 34.4268 195.068 35.0583 195.068 35.8605C195.068 36.6627 195.716 37.2942 196.502 37.2942Z" fill="#125AED"/>
<path d="M206.998 37.7209H196.502C195.477 37.7209 194.641 36.8845 194.641 35.8604C194.641 34.8363 195.477 34 196.502 34H206.998C208.023 34 208.859 34.8363 208.859 35.8604C208.859 36.8845 208.023 37.7209 206.998 37.7209ZM196.502 34.8705C195.955 34.8705 195.495 35.3142 195.495 35.8775C195.495 36.4407 195.938 36.8845 196.502 36.8845H206.998C207.545 36.8845 208.005 36.4407 208.005 35.8775C208.005 35.3142 207.562 34.8705 206.998 34.8705H196.502Z" fill="#125AED"/>
<path d="M166.018 48.9346V53.9355C166.018 56.6152 167.895 58.8511 170.404 59.4144V61.5479H179.655V59.4144C182.164 58.8511 184.041 56.6152 184.041 53.9355V48.9346H166.018Z" fill="#298FFF"/>
<path d="M200.58 87.423H198.174V107.256H200.58V87.423Z" fill="black"/>
<path d="M201.024 107.666H197.764V86.9962H201.024V107.666ZM198.6 106.812H200.154V87.8496H198.6V106.812Z" fill="black"/>
<path d="M199.386 72.3859C201.093 72.3859 202.458 73.8196 202.373 75.5264L201.707 88.9078H197.065L196.399 75.5264C196.314 73.8196 197.679 72.3859 199.386 72.3859Z" fill="#F1A062"/>
<path d="M193.565 118.197V106.813C193.565 106.01 194.214 105.362 195.016 105.362H203.755C204.557 105.362 205.206 106.01 205.206 106.813V118.197C205.206 118.999 204.557 119.648 203.755 119.648H195.016C194.214 119.648 193.565 118.999 193.565 118.197Z" fill="#E7EAEE"/>
<path d="M168.066 82.9512H166.342V97.0494H168.066V82.9512Z" fill="black"/>
<path d="M168.475 97.4933H165.898V82.5416H168.475V97.4933ZM166.768 96.6399H167.639V83.395H166.768V96.6399Z" fill="black"/>
<path d="M167.195 72.2664C168.407 72.2664 169.38 73.2904 169.329 74.5023L168.851 84.0263H165.539L165.062 74.5023C165.01 73.2904 165.983 72.2664 167.195 72.2664Z" fill="#F1A062"/>
<path d="M182.454 116.746C183.331 116.746 184.042 115.393 184.042 113.725C184.042 112.056 183.331 110.704 182.454 110.704C181.578 110.704 180.867 112.056 180.867 113.725C180.867 115.393 181.578 116.746 182.454 116.746Z" fill="#E7EAEE"/>
<path d="M182.454 78.326C183.331 78.326 184.042 76.9735 184.042 75.305C184.042 73.6365 183.331 72.2839 182.454 72.2839C181.578 72.2839 180.867 73.6365 180.867 75.305C180.867 76.9735 181.578 78.326 182.454 78.326Z" fill="#E7EAEE"/>
<path d="M183.735 77.4894H181.174C180.731 77.4894 180.389 77.8478 180.389 78.2745V110.738C180.389 111.182 180.748 111.523 181.174 111.523H183.735C184.178 111.523 184.52 111.165 184.52 110.738V78.2916C184.537 77.8478 184.178 77.4894 183.735 77.4894Z" fill="white"/>
<path d="M183.734 111.95H181.174C180.509 111.95 179.962 111.404 179.962 110.738V78.2917C179.962 77.626 180.509 77.0798 181.174 77.0798H183.734C184.4 77.0798 184.946 77.626 184.946 78.2917V110.738C184.963 111.404 184.417 111.95 183.734 111.95ZM181.174 77.9162C180.969 77.9162 180.816 78.0869 180.816 78.2746V110.738C180.816 110.943 180.987 111.097 181.174 111.097H183.734C183.939 111.097 184.093 110.926 184.093 110.738V78.2917C184.093 78.0869 183.922 77.9332 183.734 77.9332H181.174V77.9162Z" fill="black"/>
<path d="M184.878 110.209H180.048C179.655 110.209 179.331 109.885 179.331 109.492V79.572C179.331 79.1794 179.655 78.8551 180.048 78.8551H184.878C185.271 78.8551 185.595 79.1794 185.595 79.572V109.492C185.595 109.885 185.271 110.209 184.878 110.209Z" fill="#F1A062"/>
<path d="M167.195 103.348C169.589 103.348 171.53 101.407 171.53 99.0123C171.53 96.618 169.589 94.677 167.195 94.677C164.801 94.677 162.86 96.618 162.86 99.0123C162.86 101.407 164.801 103.348 167.195 103.348Z" fill="#E7EAEE"/>
<path d="M167.195 74.7749C167.506 74.7749 167.758 74.5228 167.758 74.2117C167.758 73.9006 167.506 73.6484 167.195 73.6484C166.884 73.6484 166.632 73.9006 166.632 74.2117C166.632 74.5228 166.884 74.7749 167.195 74.7749Z" fill="black"/>
<path d="M182.454 74.8267C182.765 74.8267 183.018 74.5745 183.018 74.2634C183.018 73.9524 182.765 73.7002 182.454 73.7002C182.143 73.7002 181.891 73.9524 181.891 74.2634C181.891 74.5745 182.143 74.8267 182.454 74.8267Z" fill="black"/>
<path d="M199.386 75.1682C199.697 75.1682 199.949 74.9161 199.949 74.605C199.949 74.2939 199.697 74.0417 199.386 74.0417C199.075 74.0417 198.823 74.2939 198.823 74.605C198.823 74.9161 199.075 75.1682 199.386 75.1682Z" fill="black"/>
<path d="M25.3248 97.9019L24.9493 96.2463C24.864 95.8366 25.1712 95.427 25.5979 95.427H27.1169C27.5437 95.427 27.868 95.8196 27.7656 96.2463L27.3901 97.9019H25.3248Z" fill="black"/>
<path d="M27.7484 98.3283H24.9833L24.5395 96.3313C24.4712 96.007 24.5395 95.6657 24.7614 95.4096C24.9662 95.1536 25.2735 95 25.6148 95H27.1339C27.4752 95 27.7825 95.1536 27.9873 95.4096C28.1921 95.6657 28.2774 96.007 28.2091 96.3313L27.7484 98.3283ZM25.666 97.4749H27.0656L27.3557 96.1436C27.3728 96.0412 27.3387 95.9729 27.3046 95.9387C27.2704 95.9046 27.2192 95.8534 27.1168 95.8534H25.5978C25.4953 95.8534 25.4441 95.9046 25.41 95.9387C25.3758 95.9729 25.3417 96.0412 25.3588 96.1436L25.666 97.4749Z" fill="black"/>
<path d="M14.5889 104.644C14.5889 104.985 14.862 105.258 15.2033 105.258H37.5455C37.8868 105.258 38.16 104.985 38.16 104.644C38.16 104.302 37.8868 104.029 37.5455 104.029H15.2033C14.862 104.046 14.5889 104.319 14.5889 104.644Z" fill="black"/>
<path d="M37.5283 105.685H15.1862C14.6229 105.685 14.145 105.224 14.145 104.644C14.145 104.063 14.6059 103.602 15.1862 103.602H37.5283C38.0916 103.602 38.5695 104.063 38.5695 104.644C38.5695 105.224 38.1087 105.685 37.5283 105.685ZM15.2033 104.473C15.1009 104.473 15.0155 104.558 15.0155 104.661C15.0155 104.763 15.1009 104.848 15.2033 104.848H37.5454C37.6478 104.848 37.7332 104.763 37.7332 104.661C37.7332 104.558 37.6478 104.473 37.5454 104.473H15.2033Z" fill="black"/>
<path d="M56.7128 114.27H12.5063V119.22H56.7128V114.27Z" fill="black"/>
<path d="M57.1394 119.646H12.0796V113.843H57.1394V119.646ZM12.933 118.793H56.286V114.697H12.933V118.793Z" fill="black"/>
<path d="M60.8093 111.778H8.41016V116.745H60.8093V111.778Z" fill="#F1A062"/>
<path d="M17.6099 102.578V110.634C17.6099 111.18 18.0536 111.624 18.5998 111.624H34.1318C34.6779 111.624 35.1217 111.18 35.1217 110.634V102.578H17.6099Z" fill="#D0D5DD"/>
<path d="M35.3776 102.578H17.3538C17.166 102.578 17.0465 102.373 17.1489 102.203C18.9923 99.284 22.423 97.3212 26.3657 97.3212C30.3084 97.3212 33.7391 99.284 35.5825 102.203C35.6849 102.356 35.5654 102.578 35.3776 102.578Z" fill="#D0D5DD"/>
<path d="M42.1538 107.784L43.1779 111.539H49.3224L50.3465 107.784H42.1538Z" fill="#298FFF"/>
<path d="M24.9834 95.1548C24.9834 95.0183 24.4373 80.6298 19.2656 72.8297L19.9825 72.3518C25.2907 80.3568 25.8198 94.5233 25.8369 95.1207L24.9834 95.1548Z" fill="#065F46"/>
<path d="M45.5333 36.8328C46.5404 36.5085 47.8376 37.0205 48.3837 37.9422C49.8857 40.4342 51.3706 47.0054 44.4239 62.9641C44.4239 62.9641 38.5696 75.6627 32.5104 77.0453C31.4522 77.2842 30.2233 76.738 29.7112 75.8164C28.4823 73.5292 27.3559 67.5895 33.1419 53.1499C33.159 53.167 38.7232 38.9834 45.5333 36.8328Z" fill="#065F46"/>
<path d="M31.9986 77.5403C30.9233 77.5403 29.8309 76.9429 29.3359 76.0212C28.09 73.7171 26.8781 67.6579 32.7496 52.9964C32.9714 52.416 38.4674 38.6079 45.38 36.4232C46.5747 36.0477 48.0767 36.628 48.7253 37.7204C50.2615 40.2977 51.8147 47.0054 44.7997 63.1348C44.5607 63.6639 38.7746 76.0554 32.596 77.472C32.4082 77.5232 32.2205 77.5403 31.9986 77.5403ZM46.1822 37.1571C45.9944 37.1571 45.8237 37.1742 45.6531 37.2425C39.116 39.3077 33.6201 53.1841 33.5518 53.3207C27.7998 67.6579 28.9092 73.444 30.0869 75.6287C30.4965 76.3967 31.5377 76.8405 32.4082 76.6528C38.1772 75.3385 43.9633 62.93 44.0316 62.7935C50.893 47.0225 49.4592 40.5878 48.0084 38.1642C47.65 37.5497 46.882 37.1571 46.1822 37.1571Z" fill="#065F46"/>
<path d="M22.9182 95.0864L22.0648 95.0523C22.0648 94.9499 22.2526 87.8495 15.8521 78.3767L16.5519 77.8988C23.1402 87.6447 22.9353 94.7792 22.9182 95.0864Z" fill="#065F46"/>
<path d="M27.7657 95.3084C27.7486 95.2401 26.4002 89.1639 25.0688 77.5917L25.9223 77.4893C27.2536 89.0102 28.602 95.0524 28.6191 95.1206L27.7657 95.3084Z" fill="#065F46"/>
<path d="M21.4334 40.4003C21.4334 40.4003 19.1803 35.0068 16.1934 37.5499C13.2065 40.0931 10.5098 57.4684 14.6914 67.9482C18.8731 78.4281 21.8771 74.8437 21.8771 74.8437C21.8771 74.8437 25.1883 62.4182 21.4334 40.4003Z" fill="#065F46"/>
<path d="M20.5286 75.8676C20.4092 75.8676 20.2727 75.8505 20.1532 75.8335C18.2074 75.5262 16.2445 72.9319 14.3159 68.1187C12.4384 63.442 11.7215 56.7513 12.3359 49.7363C12.865 43.6259 14.3159 38.5908 15.9373 37.2254C16.7395 36.5427 17.5588 36.3037 18.4122 36.5085C20.4945 37.0035 21.7917 40.0928 21.86 40.2294L21.8771 40.2806V40.3318C25.5979 62.179 22.3549 74.8264 22.3208 74.963L22.3038 75.0483L22.2354 75.1166C22.1842 75.1507 21.5869 75.8676 20.5286 75.8676ZM17.8148 37.2936C17.371 37.2936 16.9273 37.4814 16.4665 37.874C15.2546 38.8981 13.7356 43.3358 13.1723 49.8046C12.575 56.683 13.2747 63.2372 15.0839 67.7944C17.4393 73.7 19.3339 74.8265 20.2556 74.9801C20.9042 75.0825 21.3479 74.7582 21.5015 74.6216C21.8088 73.3757 24.5226 61.0866 21.0237 40.5025C20.8701 40.144 19.7265 37.6862 18.1903 37.3278C18.0709 37.3107 17.9514 37.2936 17.8148 37.2936Z" fill="#065F46"/>
<path d="M0.592901 55.642C0.831855 54.6009 1.8047 53.884 2.86293 53.9864C4.96231 54.2083 9.2123 56.3247 16.6369 66.4461C16.6369 66.4461 22.0646 73.7684 19.419 79.5886C18.7363 81.0906 17.2173 82.0464 15.5617 82.0293C12.5406 82.0123 7.38598 80.5956 4.0577 72.1298C4.07476 72.1469 -0.499458 60.3528 0.592901 55.642Z" fill="#10B981"/>
<path d="M15.596 82.473C15.5789 82.473 15.579 82.473 15.5619 82.473C12.6091 82.4559 7.13021 81.1075 3.66538 72.3004C3.47763 71.8054 -0.942995 60.3186 0.183501 55.5395C0.473659 54.2765 1.65136 53.4231 2.9144 53.5596C5.28687 53.8156 9.67337 56.2052 16.9956 66.19C17.2175 66.4972 22.5427 73.7683 19.8118 79.7592C19.0608 81.4148 17.4052 82.473 15.596 82.473ZM2.65838 54.413C1.89031 54.413 1.20757 54.9592 1.01982 55.7443C-0.0384013 60.2674 4.43348 71.8737 4.46762 71.9932C7.74469 80.3224 12.8309 81.6025 15.5789 81.6196H15.596C17.0809 81.6196 18.4293 80.7662 19.0267 79.4349C21.5528 73.8877 16.347 66.7874 16.2958 66.7191C8.78582 56.4783 4.62119 54.6178 2.81197 54.4301C2.77784 54.413 2.70958 54.413 2.65838 54.413Z" fill="#065F46"/>
<path d="M24.181 23.1273C25.0514 22.2056 26.5193 22.1885 27.4239 23.0761C29.8817 25.4827 33.9439 33.0951 33.4148 57.0075C33.4148 57.0075 32.6638 76.2091 27.2532 81.0735C26.3145 81.9099 24.8637 81.8587 24.0103 80.937C21.8938 78.6499 18.4461 71.6519 18.4461 50.2827C18.4461 50.2827 18.3095 29.3571 24.181 23.1273Z" fill="#10B981"/>
<path d="M25.7173 82.0977C24.9834 82.0977 24.2494 81.8076 23.7032 81.2272C21.5868 78.9401 18.0196 71.891 18.0196 50.2827C18.0196 49.4293 17.9512 29.1183 23.8568 22.8372C24.3518 22.3081 25.0175 22.0179 25.7514 22.0009C26.5024 21.9838 27.1851 22.2569 27.7142 22.786C30.2232 25.2609 34.3708 32.9927 33.8417 57.0417C33.8075 57.8439 33.0224 76.4823 27.5435 81.415C27.0315 81.8588 26.3659 82.0977 25.7173 82.0977ZM25.8196 22.8543C25.8026 22.8543 25.7856 22.8543 25.7856 22.8543C25.2906 22.8713 24.8297 23.0591 24.4884 23.4175C18.8218 29.4426 18.873 50.0609 18.873 50.2657C18.873 71.5838 22.2866 78.4451 24.3348 80.6299C25.0346 81.3809 26.2123 81.4321 26.9803 80.7493C32.2032 76.0727 32.9883 57.1783 33.0053 56.9905C33.5345 33.2658 29.5576 25.7388 27.1339 23.3834C26.7755 23.042 26.3146 22.8543 25.8196 22.8543Z" fill="#065F46"/>
<path d="M17.6444 81.4662C12.0802 67.9654 1.17368 54.8058 1.0542 54.6864L1.44673 54.3621C1.54914 54.4986 12.5069 67.7093 18.1052 81.2785L17.6444 81.4662Z" fill="#065F46"/>
<path d="M16.6542 78.9914C12.7627 77.6771 6.31095 76.7384 6.24268 76.7384L6.31093 76.2263C6.3792 76.2434 12.8822 77.1821 16.8078 78.5134L16.6542 78.9914Z" fill="#065F46"/>
<path d="M15.2887 76.209C13.0527 75.1338 4.72352 73.8195 4.63818 73.8024L4.72352 73.2904C5.06489 73.3416 13.2063 74.6217 15.5276 75.7311L15.2887 76.209Z" fill="#065F46"/>
<path d="M8.68338 65.0467C6.89122 63.9031 0.934483 61.9744 0.866211 61.9574L1.01981 61.4624C1.27583 61.5477 7.11313 63.4252 8.95648 64.6029L8.68338 65.0467Z" fill="#065F46"/>
<path d="M6.32805 61.5988C4.41642 60.5918 0.524859 59.636 0.490723 59.636L0.610233 59.141C0.780914 59.1751 4.60416 60.1139 6.56699 61.155L6.32805 61.5988Z" fill="#065F46"/>
<path d="M11.3973 68.5455L10.9023 68.409C11.5339 66.0024 11.4997 60.4382 11.4997 60.387H12.0118C12.0118 60.6088 12.063 66.0536 11.3973 68.5455Z" fill="#065F46"/>
<path d="M12.9334 71.1058L12.4385 70.9693C13.2577 67.9824 13.2919 62.5376 13.2919 62.4694H13.8039C13.821 62.7083 13.7868 68.0506 12.9334 71.1058Z" fill="#065F46"/>
<path d="M31.3667 95.3254C31.3155 95.1376 30.0184 90.5804 33.8075 82.7974L34.5756 83.1729C30.923 90.6658 32.169 95.0352 32.1861 95.0864L31.3667 95.3254Z" fill="#065F46"/>
<path d="M44.6632 63.2892C44.373 62.4699 43.5196 61.9749 42.6662 62.1798C40.9935 62.5553 37.7506 64.6888 32.7155 73.5983C32.7155 73.5983 29.0287 80.0501 31.7426 84.5049C32.4424 85.6484 33.7566 86.2799 35.0879 86.1093C37.5287 85.802 41.5738 84.1635 43.4513 76.9949C43.4342 76.9778 46.0115 66.993 44.6632 63.2892Z" fill="#10B981"/>
<path d="M34.644 86.5531C33.3127 86.5531 32.0497 85.8704 31.3499 84.7098C28.5508 80.0843 32.1691 73.6325 32.3228 73.3595C37.3067 64.5523 40.6349 62.1798 42.5465 61.7361C43.5877 61.4971 44.663 62.0945 45.0385 63.1186C46.421 66.9077 43.9291 76.6536 43.8267 77.0632C41.8638 84.5732 37.5115 86.1947 35.1049 86.5019C34.9684 86.536 34.7977 86.5531 34.644 86.5531ZM43.0245 62.5553C42.9392 62.5553 42.8367 62.5724 42.7514 62.5895C41.3177 62.9138 38.16 64.8083 33.0737 73.8032C33.0396 73.8715 29.5407 80.0843 32.0838 84.283C32.6983 85.2901 33.8419 85.8362 35.0196 85.6826C37.2214 85.4095 41.1811 83.9075 43.0245 76.8755C43.0416 76.7731 45.5505 66.976 44.2534 63.4258C44.0656 62.8967 43.5536 62.5553 43.0245 62.5553Z" fill="#065F46"/>
<path d="M33.3812 85.8356L32.8862 85.6991C36.1121 74.161 43.7245 62.4011 43.7927 62.2816L44.2194 62.5547C44.1512 62.6912 36.59 74.3829 33.3812 85.8356Z" fill="#065F46"/>
<path d="M33.9274 83.7704L33.7056 83.3096C36.7608 81.8588 41.9324 80.4592 42.0007 80.4421L42.1372 80.9371C42.0689 80.9712 36.9314 82.3538 33.9274 83.7704Z" fill="#065F46"/>
<path d="M34.7638 81.3809L34.4907 80.9542C36.2658 79.8277 42.7346 78.0014 43.0077 77.9331L43.1442 78.4281C43.093 78.4451 36.4706 80.3056 34.7638 81.3809Z" fill="#065F46"/>
<path d="M39.0474 71.7032L38.7231 71.3106C40.1057 70.167 44.6628 68.0847 44.8506 67.9994L45.0554 68.4602C45.0213 68.4773 40.3787 70.6108 39.0474 71.7032Z" fill="#065F46"/>
<path d="M40.6178 68.699L40.3276 68.2723C41.8296 67.2483 44.8337 66.1047 44.9702 66.0706L45.1409 66.5485C45.1067 66.5655 42.0515 67.7091 40.6178 68.699Z" fill="#065F46"/>
<path d="M37.1019 74.7753C36.3338 72.8295 35.8388 68.4089 35.8218 68.2211L36.3338 68.1699C36.3338 68.2211 36.8459 72.71 37.5798 74.6046L37.1019 74.7753Z" fill="#065F46"/>
<path d="M36.1118 77.0111C35.1389 74.6045 34.5928 70.2863 34.5757 70.0985L35.0877 70.0303C35.0877 70.0815 35.6509 74.485 36.5897 76.8063L36.1118 77.0111Z" fill="#065F46"/>
<path d="M25.7855 82.0635C25.2906 74.8095 25.7002 22.9566 25.7002 22.4275H26.2122C26.2122 22.9566 25.8026 74.7925 26.2976 82.0123L25.7855 82.0635Z" fill="#065F46"/>
<path d="M25.7345 42.2435C23.8571 39.1201 19.4194 36.2868 19.3853 36.2526L19.6584 35.8259C19.8461 35.9454 24.2496 38.7446 26.1783 41.9875L25.7345 42.2435Z" fill="#065F46"/>
<path d="M25.6151 45.1622C23.7717 42.5167 18.9926 39.5809 18.9414 39.5468L19.2145 39.103C19.4193 39.2225 24.1301 42.1241 26.0418 44.872L25.6151 45.1622Z" fill="#065F46"/>
<path d="M25.9903 48.1492L25.666 47.7566C25.8026 47.6372 29.165 44.838 33.1419 43.7627L33.2784 44.2577C29.4039 45.2988 26.0244 48.1321 25.9903 48.1492Z" fill="#065F46"/>
<path d="M25.9907 52.2283L25.6323 51.8529C25.6665 51.8187 29.0459 48.5758 33.2959 47.2103L33.4495 47.7053C29.319 49.0366 26.0248 52.1942 25.9907 52.2283Z" fill="#065F46"/>
<path d="M25.5806 59.4995C23.2764 55.113 18.395 52.7576 18.3438 52.7234L18.5656 52.2626C18.7704 52.365 23.652 54.7033 26.0415 59.2605L25.5806 59.4995Z" fill="#065F46"/>
<path d="M26.0078 68.1188L25.6323 67.7774C25.6665 67.7433 28.5851 64.5515 32.8863 62.2473L33.1252 62.6911C28.8923 64.9612 26.0248 68.0846 26.0078 68.1188Z" fill="#065F46"/>
<path d="M25.9907 70.901L25.6323 70.5255C25.7689 70.3889 28.9776 67.3678 32.4254 65.9683L32.6132 66.4462C29.2678 67.8116 26.0248 70.8839 25.9907 70.901Z" fill="#065F46"/>
<path d="M29.404 95.2912C29.3016 94.7108 27.0486 81.1075 32.152 71.8054L32.903 72.2151C27.9362 81.2612 30.2233 95.0181 30.2574 95.1546L29.404 95.2912Z" fill="#065F46"/>
<path d="M42.0001 95.5474L41.6928 97.459L38.3987 117.685C38.2622 118.538 37.5111 119.17 36.6577 119.17H17.0465C16.176 119.17 15.4421 118.538 15.3056 117.685L12.0114 97.459L11.7042 95.5474C11.5335 94.4721 12.3527 93.4992 13.4451 93.4992H40.2762C41.3344 93.4822 42.1708 94.4721 42.0001 95.5474Z" fill="#10B981"/>
<path d="M36.6412 119.596H17.0298C15.9545 119.596 15.0329 118.828 14.8622 117.753L11.2438 95.5985C11.1414 94.9669 11.312 94.3183 11.7387 93.8234C12.1484 93.3284 12.7629 93.0553 13.4114 93.0553H40.2425C40.8911 93.0553 41.4885 93.3455 41.9152 93.8234C42.3419 94.3183 42.5126 94.9669 42.4102 95.5985L38.7917 117.753C38.6381 118.828 37.7165 119.596 36.6412 119.596ZM13.4114 93.9087C13.0189 93.9087 12.6434 94.0794 12.3874 94.3866C12.1313 94.6938 12.0289 95.0864 12.0801 95.479L15.6986 117.633C15.801 118.282 16.3642 118.76 17.0298 118.76H36.6412C37.3068 118.76 37.853 118.282 37.9724 117.633L41.5909 95.479C41.6592 95.0864 41.5397 94.6938 41.2836 94.3866C41.0276 94.0794 40.6521 93.9087 40.2596 93.9087H13.4114Z" fill="#065F46"/>
<path d="M42.0006 95.5473L41.6933 97.4589H11.9948L11.6876 95.5473C11.5169 94.472 12.3362 93.4991 13.4286 93.4991H40.2596C41.3349 93.4821 42.1713 94.472 42.0006 95.5473Z" fill="#065F46"/>
<path d="M42.0517 97.8855H11.6193L11.2438 95.6154C11.1414 94.9839 11.312 94.3353 11.7387 93.8403C12.1484 93.3454 12.7629 93.0723 13.4114 93.0723H40.2425C40.8911 93.0723 41.4885 93.3624 41.9152 93.8403C42.3419 94.3353 42.5126 94.9839 42.4102 95.6154L42.0517 97.8855ZM12.3361 97.0321H41.3178L41.5738 95.4789C41.6421 95.0863 41.5226 94.6937 41.2666 94.3865C41.0105 94.0793 40.635 93.9086 40.2425 93.9086H13.4114C13.0189 93.9086 12.6434 94.0793 12.3874 94.3865C12.1313 94.6937 12.0289 95.0863 12.0801 95.4789L12.3361 97.0321Z" fill="#065F46"/>
<path d="M133.98 119.556H180.235C184.673 119.556 188.257 115.972 188.257 111.534C188.257 107.097 184.673 103.512 180.235 103.512H133.98V119.556Z" fill="#F87171"/>
<path d="M180.235 119.983H133.554V103.085H180.235C184.895 103.085 188.684 106.874 188.684 111.534C188.684 116.194 184.895 119.983 180.235 119.983ZM134.407 119.129H180.235C184.417 119.129 187.83 115.716 187.83 111.534C187.83 107.352 184.417 103.939 180.235 103.939H134.407V119.129Z" fill="#991B1B"/>
<path d="M148.403 112.251C147.925 104.519 142.788 103.956 142.719 103.939L142.805 103.085C142.873 103.085 144.341 103.239 145.877 104.451C147.276 105.56 148.983 107.796 149.256 112.183L148.403 112.251Z" fill="#991B1B"/>
<path d="M155.742 112.251C155.264 104.519 150.127 103.956 150.059 103.939L150.144 103.085C150.212 103.085 151.68 103.239 153.216 104.451C154.616 105.56 156.323 107.796 156.596 112.183L155.742 112.251Z" fill="#991B1B"/>
<path d="M176.224 112.251C175.746 104.519 170.609 103.956 170.541 103.939L170.626 103.085C170.694 103.085 172.162 103.239 173.698 104.451C175.098 105.56 176.804 107.796 177.078 112.183L176.224 112.251Z" fill="#991B1B"/>
<path d="M183.564 112.251C183.086 104.519 177.948 103.956 177.88 103.939L177.965 103.085C178.033 103.085 179.501 103.239 181.037 104.451C182.437 105.56 184.144 107.796 184.417 112.183L183.564 112.251Z" fill="#991B1B"/>
<path d="M133.878 119.983C138.45 119.983 142.156 116.276 142.156 111.705C142.156 107.133 138.45 103.427 133.878 103.427C129.306 103.427 125.6 107.133 125.6 111.705C125.6 116.276 129.306 119.983 133.878 119.983Z" fill="#991B1B"/>
<path d="M133.878 120.409C129.082 120.409 125.173 116.501 125.173 111.705C125.173 106.909 129.082 103 133.878 103C138.674 103 142.583 106.909 142.583 111.705C142.583 116.501 138.674 120.409 133.878 120.409ZM133.878 103.853C129.543 103.853 126.027 107.369 126.027 111.705C126.027 116.04 129.543 119.556 133.878 119.556C138.213 119.556 141.729 116.04 141.729 111.705C141.729 107.369 138.196 103.853 133.878 103.853Z" fill="#991B1B"/>
<path d="M133.844 117.491C137.021 117.491 139.596 114.915 139.596 111.739C139.596 108.562 137.021 105.987 133.844 105.987C130.668 105.987 128.092 108.562 128.092 111.739C128.092 114.915 130.668 117.491 133.844 117.491Z" fill="#F87171"/>
<path d="M133.844 117.918C130.431 117.918 127.666 115.152 127.666 111.739C127.666 108.325 130.431 105.56 133.844 105.56C137.258 105.56 140.023 108.325 140.023 111.739C140.023 115.152 137.241 117.918 133.844 117.918ZM133.844 106.414C130.909 106.414 128.519 108.803 128.519 111.739C128.519 114.675 130.909 117.064 133.844 117.064C136.78 117.064 139.169 114.675 139.169 111.739C139.169 108.803 136.78 106.414 133.844 106.414Z" fill="#991B1B"/>
<path d="M136.456 113.224C136.217 113.394 135.875 113.224 135.892 112.917C135.892 112.643 135.892 112.302 135.824 111.944C135.687 111.176 135.244 110.186 135.551 109.537C135.653 109.332 135.926 109.264 136.097 109.418C136.831 109.998 138.538 111.688 136.456 113.224Z" fill="#991B1B"/>
<path d="M135.278 108.342C134.271 108.427 132.752 108.649 131.318 109.178C131.267 109.196 131.233 109.196 131.181 109.196C130.942 109.178 130.191 109.093 130.191 108.581C130.191 108.052 132.888 106.584 135.397 107.659C135.721 107.813 135.636 108.308 135.278 108.342Z" fill="#991B1B"/>
<path d="M131.745 110.049C132.001 110.117 132.12 110.424 131.932 110.629C131.557 111.073 131.079 111.841 131.694 112.558C132.615 113.633 133.52 114.538 132.308 114.691C131.096 114.845 129.714 114.691 129.867 112.558C130.004 110.698 130.601 109.759 131.745 110.049Z" fill="#991B1B"/>
<path d="M132.735 115.716C132.41 115.75 132.291 116.159 132.547 116.364C132.632 116.433 132.769 116.484 132.922 116.518C133.622 116.654 137.053 115.886 137.104 114.453C137.121 114.18 136.797 113.992 136.558 114.145C136.404 114.231 136.216 114.401 135.96 114.692C135.397 115.391 133.554 115.647 132.735 115.716Z" fill="#991B1B"/>
<path d="M134.316 111.727C134.459 111.287 134.313 110.846 133.991 110.741C133.668 110.636 133.291 110.907 133.147 111.346C133.004 111.785 133.15 112.226 133.472 112.331C133.795 112.436 134.173 112.166 134.316 111.727Z" fill="#991B1B"/>
<path d="M53.0776 119.078H71.3405V114.674C71.3405 113.787 70.7431 113.001 69.8897 112.762C68.6779 112.421 66.4249 112.097 62.2944 112.097C60.3145 112.097 56.1328 112.199 54.1188 113.309C53.4702 113.65 53.0776 114.333 53.0776 115.067V119.078Z" fill="#F87171"/>
<path d="M71.7672 119.505H52.6509V115.033C52.6509 114.145 53.1288 113.326 53.9139 112.899C55.8255 111.858 59.4952 111.636 62.2602 111.636C62.2773 111.636 62.2944 111.636 62.2944 111.636C65.8275 111.636 68.4219 111.875 70.0092 112.319C71.0503 112.609 71.7672 113.565 71.7672 114.657V119.505ZM53.5043 118.651H70.9138V114.674C70.9138 113.974 70.4529 113.36 69.7702 113.172C68.729 112.882 66.5785 112.524 62.2944 112.524C62.2773 112.524 62.2602 112.524 62.2602 112.524C58.5223 112.524 55.706 112.933 54.3235 113.684C53.8115 113.957 53.5043 114.486 53.5043 115.067V118.651Z" fill="#991B1B"/>
<path d="M61.9892 115.608C66.2008 115.479 69.5977 114.816 69.5766 114.128C69.5555 113.441 66.1243 112.988 61.9128 113.117C57.7013 113.246 54.3042 113.909 54.3253 114.597C54.3465 115.284 57.7777 115.737 61.9892 115.608Z" fill="#991B1B"/>
<path d="M61.6747 114.789C63.1728 114.743 64.3811 114.507 64.3736 114.262C64.3661 114.017 63.1456 113.856 61.6475 113.902C60.1495 113.948 58.9412 114.184 58.9487 114.429C58.9562 114.673 60.1767 114.835 61.6747 114.789Z" fill="#F87171"/>
<path d="M38.8426 115.527L39.5765 117.559C39.8667 118.361 40.5836 118.941 41.4199 119.044C44.4922 119.436 51.9339 119.726 56.4911 114.213C56.986 113.616 57.1396 112.814 56.9007 112.063L56.1155 109.622C55.8766 108.871 55.1768 108.376 54.3917 108.393C51.3194 108.478 43.6899 109.673 39.2352 113.684C38.7402 114.145 38.6037 114.896 38.8426 115.527Z" fill="#F87171"/>
<path d="M44.3556 119.675C43.1608 119.675 42.1197 119.59 41.3687 119.487C40.3617 119.351 39.5083 118.685 39.1669 117.729L38.433 115.698C38.1428 114.879 38.3477 113.94 38.9451 113.394C43.6217 109.178 51.6608 108.069 54.3746 108C55.3475 107.983 56.218 108.598 56.5081 109.519L57.2933 111.96C57.5834 112.848 57.3956 113.786 56.7982 114.503C53.2651 118.787 48.0252 119.675 44.3556 119.675ZM54.4429 108.837C54.4258 108.837 54.4258 108.837 54.4087 108.837C51.7973 108.905 44.0143 109.98 39.5254 114.008C39.1669 114.333 39.0645 114.879 39.2352 115.391L39.9691 117.422C40.2081 118.071 40.7884 118.548 41.4711 118.634C44.4068 119.009 51.729 119.317 56.1497 113.94C56.5593 113.445 56.6788 112.796 56.491 112.199L55.7059 109.758C55.5352 109.212 55.0061 108.837 54.4429 108.837Z" fill="#991B1B"/>
<path d="M48.0586 114.505C52.2672 113.091 55.4232 111.184 55.1079 110.245C54.7926 109.307 51.1252 109.693 46.9167 111.108C42.7081 112.522 39.552 114.43 39.8674 115.368C40.1827 116.306 43.8501 115.92 48.0586 114.505Z" fill="#991B1B"/>
<path d="M47.3973 113.454C48.8984 112.949 50.0253 112.272 49.9142 111.942C49.8031 111.611 48.496 111.752 46.9949 112.256C45.4937 112.761 44.3669 113.438 44.4781 113.769C44.5892 114.099 45.8961 113.958 47.3973 113.454Z" fill="#F87171"/>
<path d="M201.144 99.499H10.4927V119.981H201.144V99.499Z" fill="#F1A062"/>
<path d="M201.57 120.408H10.0659V99.0726H201.57V120.408ZM10.9193 119.554H200.717V99.926H10.9193V119.554Z" fill="black"/>
<path d="M204.045 96.4271H7.59131V102.572H204.045V96.4271Z" fill="black"/>
<path d="M204.472 102.998H7.16455V96H204.472V102.998ZM8.01796 102.145H203.619V96.8534H8.01796V102.145Z" fill="black"/>
<path d="M72.0235 106.241H16.04V116.823H72.0235V106.241Z" fill="#F1A062"/>
<path d="M72.4501 117.25H15.6133V105.814H72.4501V117.25ZM16.4667 116.397H71.5967V106.668H16.4667V116.397Z" fill="black"/>
<path d="M55.467 106.241L54.2722 109.313H33.7905L32.5957 106.241H55.467Z" fill="black"/>
<path d="M133.81 106.241H77.8262V116.823H133.81V106.241Z" fill="#F1A062"/>
<path d="M134.236 117.25H77.3994V105.814H134.236V117.25ZM78.2528 116.397H133.383V106.668H78.2528V116.397Z" fill="black"/>
<path d="M117.254 106.241L116.059 109.313H95.5771L94.3823 106.241H117.254Z" fill="black"/>
<path d="M195.426 106.241H139.442V116.823H195.426V106.241Z" fill="#F1A062"/>
<path d="M195.852 117.25H139.016V105.814H195.852V117.25ZM139.869 116.397H194.999V106.668H139.869V116.397Z" fill="black"/>
<path d="M178.87 106.241L177.675 109.313H157.193L155.999 106.241H178.87Z" fill="black"/>
<path d="M120.991 9.33008C120.991 9.33008 121.077 17.3009 116.434 21.3972L115.786 9.80798L120.991 9.33008Z" fill="black"/>
<path d="M98.9397 24.4096C98.9397 24.4096 102.712 34.0189 110.768 32.534C110.768 32.534 117.186 31.7489 117.612 22.2078L117.885 8.67277L98.8373 7.46094L98.2228 16.985C98.2228 16.985 95.2018 17.3946 95.6114 20.3986C96.0211 23.4026 98.9397 24.4096 98.9397 24.4096Z" fill="#CF9172"/>
<path d="M102.899 3.39027C118.111 -4.03396 116.063 3.04938 116.063 3.04938C116.827 2.53719 120.04 2.43411 120.586 3.39027C121.269 4.58547 120.928 5.2682 120.245 5.6949C121.07 5.52422 122.788 5.42181 123.061 6.37763C123.402 7.57239 121.61 10.0477 120.245 10.474C119.152 10.815 118.035 10.1606 117.612 9.79081C115.916 10.9511 108.135 9.81941 104.457 9.10852L104.115 11.6687L101.995 10.9002L101.722 18.854L100.339 18.5638C99.8271 17.1472 97.3693 17.3008 97.3693 17.3008C92.0611 2.53686 102.899 3.39027 102.899 3.39027Z" fill="black"/>
<path d="M139.613 63.3507L129.543 43.7224C128.4 41.4864 126.386 39.7967 123.979 39.0628L111.946 35.359C111.946 35.359 108.874 45.5999 96.926 33.9935L76.7857 38.875C74.1401 39.5236 71.8871 41.2816 70.6582 43.7224L59.5469 65.5695L78.8338 70.1779L70.2315 118.907L123.143 118.737L125.618 74.6157L139.613 63.3507Z" fill="#298FFF"/>
<path d="M82.1963 36.2468C81.4794 36.4175 81.0186 37.1173 81.1722 37.8342C82.1963 42.9546 85.7976 60.9615 85.3539 68.2837C85.0808 72.4483 83.0326 80.1631 75.5226 81.0165L69.1221 119.505L123.996 119.59L126.642 80.9312C126.642 80.9312 120.241 74.7013 120.326 66.9353L124.849 39.3532C124.986 38.6534 124.559 37.9536 123.86 37.7659L119.661 36.4687C118.91 36.2298 118.125 36.6906 117.937 37.4416L110.939 65.9112L95.919 65.7405L88.5456 36.1785C88.3749 35.4446 87.641 35.0008 86.9071 35.1545L82.1963 36.2468Z" fill="#16387E"/>
<path d="M138.418 64.3746L145.416 77.005L164.191 97.9988C164.191 97.9988 174.585 101.173 173.408 107.898C172.64 112.336 170.557 112.524 169.192 112.097C168.577 111.909 168.031 111.568 167.57 111.124L164.02 107.728C164.02 107.728 165.727 111.141 162.825 112.336L158.9 106.704L157.876 103.631L134.527 86.1535C133.827 85.6415 133.229 85.01 132.717 84.2931L125.788 74.4448L138.418 64.3746Z" fill="#CF9172"/>
<path d="M108.891 109.11L100.356 98.8353L122.511 80.4188C123.467 79.6166 124.9 79.7531 125.703 80.7089L132.786 89.243L108.891 109.11Z" fill="#E7EAEE"/>
<path d="M87.7773 109.247C86.7533 110.1 86.6338 111.636 87.5555 112.643C88.4089 113.582 89.8597 113.633 90.8326 112.814L103.361 102.403C103.753 102.078 103.804 101.498 103.48 101.122L101.654 98.9206C101.329 98.5281 100.749 98.4768 100.374 98.8011L87.7773 109.247Z" fill="#B45309"/>
<path d="M61.7826 66.0815L56.116 83.6788C55.6381 85.1808 56.2013 86.8364 57.5156 87.7239L89.945 109.605L92.1639 110.8C92.1639 110.8 99.5031 112.848 100.698 109.776C100.698 109.776 102.917 109.605 102.405 107.728C102.405 107.728 104.282 107.045 103.429 105.338C103.429 105.338 104.965 103.802 103.258 103.119C103.258 103.119 97.967 104.485 95.9188 101.583L97.455 101.242L100.869 98.3403C100.869 98.3403 98.3084 98.8523 96.2602 98.511C94.212 98.1696 90.9691 100.559 90.9691 100.559L73.0476 83.491L78.68 70.1779L61.7826 66.0815Z" fill="#CF9172"/>
<path d="M90.8836 72.4179C92.6558 72.4179 94.0924 70.9812 94.0924 69.209C94.0924 67.4369 92.6558 66.0002 90.8836 66.0002C89.1114 66.0002 87.6748 67.4369 87.6748 69.209C87.6748 70.9812 89.1114 72.4179 90.8836 72.4179Z" fill="#A3CFFF"/>
<path d="M90.0301 69.0004C90.2941 69.0004 90.508 68.7864 90.508 68.5225C90.508 68.2585 90.2941 68.0446 90.0301 68.0446C89.7662 68.0446 89.5522 68.2585 89.5522 68.5225C89.5522 68.7864 89.7662 69.0004 90.0301 69.0004Z" fill="black"/>
<path d="M91.7372 69.0002C92.0011 69.0002 92.215 68.7863 92.215 68.5223C92.215 68.2584 92.0011 68.0444 91.7372 68.0444C91.4732 68.0444 91.2593 68.2584 91.2593 68.5223C91.2593 68.7863 91.4732 69.0002 91.7372 69.0002Z" fill="black"/>
<path d="M90.0301 70.5193C90.2941 70.5193 90.508 70.3053 90.508 70.0414C90.508 69.7774 90.2941 69.5635 90.0301 69.5635C89.7662 69.5635 89.5522 69.7774 89.5522 70.0414C89.5522 70.3053 89.7662 70.5193 90.0301 70.5193Z" fill="black"/>
<path d="M91.7372 70.5193C92.0011 70.5193 92.215 70.3053 92.215 70.0414C92.215 69.7774 92.0011 69.5635 91.7372 69.5635C91.4732 69.5635 91.2593 69.7774 91.2593 70.0414C91.2593 70.3053 91.4732 70.5193 91.7372 70.5193Z" fill="black"/>
<path d="M114.949 73.1005C116.722 73.1005 118.158 71.6638 118.158 69.8917C118.158 68.1195 116.722 66.6829 114.949 66.6829C113.177 66.6829 111.741 68.1195 111.741 69.8917C111.741 71.6638 113.177 73.1005 114.949 73.1005Z" fill="#A3CFFF"/>
<path d="M114.096 69.683C114.36 69.683 114.574 69.469 114.574 69.2051C114.574 68.9411 114.36 68.7272 114.096 68.7272C113.832 68.7272 113.618 68.9411 113.618 69.2051C113.618 69.469 113.832 69.683 114.096 69.683Z" fill="black"/>
<path d="M115.803 69.6829C116.067 69.6829 116.28 69.4689 116.28 69.205C116.28 68.941 116.067 68.7271 115.803 68.7271C115.539 68.7271 115.325 68.941 115.325 69.205C115.325 69.4689 115.539 69.6829 115.803 69.6829Z" fill="black"/>
<path d="M114.096 71.2019C114.36 71.2019 114.574 70.9879 114.574 70.724C114.574 70.4601 114.36 70.2461 114.096 70.2461C113.832 70.2461 113.618 70.4601 113.618 70.724C113.618 70.9879 113.832 71.2019 114.096 71.2019Z" fill="black"/>
<path d="M115.803 71.2019C116.067 71.2019 116.28 70.9879 116.28 70.724C116.28 70.4601 116.067 70.2461 115.803 70.2461C115.539 70.2461 115.325 70.4601 115.325 70.724C115.325 70.9879 115.539 71.2019 115.803 71.2019Z" fill="black"/>
<path d="M106.16 39.4554H105.306V65.8598H106.16V39.4554Z" fill="black"/>
<path d="M102.831 45.5997C103.444 45.5997 103.941 45.103 103.941 44.4903C103.941 43.8776 103.444 43.3809 102.831 43.3809C102.218 43.3809 101.722 43.8776 101.722 44.4903C101.722 45.103 102.218 45.5997 102.831 45.5997Z" fill="black"/>
<path d="M102.917 52.5123C103.529 52.5123 104.026 52.0156 104.026 51.4029C104.026 50.7902 103.529 50.2935 102.917 50.2935C102.304 50.2935 101.807 50.7902 101.807 51.4029C101.807 52.0156 102.304 52.5123 102.917 52.5123Z" fill="black"/>
<path d="M102.746 59.5102C103.358 59.5102 103.855 59.0135 103.855 58.4008C103.855 57.7881 103.358 57.2914 102.746 57.2914C102.133 57.2914 101.636 57.7881 101.636 58.4008C101.636 59.0135 102.133 59.5102 102.746 59.5102Z" fill="black"/>
<path d="M80.8995 64.2618L78.1104 70.6052L78.8916 70.9487L81.6808 64.6053L80.8995 64.2618Z" fill="black"/>
<path d="M123.577 70.475L122.873 70.9573L125.892 75.3647L126.596 74.8824L123.577 70.475Z" fill="black"/>
<path d="M208.141 119H2.2998V119.853H208.141V119Z" fill="black"/>
</svg>
