<svg width="339" height="250" viewBox="0 0 339 250" fill="none" xmlns="http://www.w3.org/2000/svg">
<g clip-path="url(#clip0_3286_38807)">
<path opacity="0.1" d="M3.64844 119.859C9.00146 140.542 20.3239 158.422 38.2166 167.089C75.4134 185.101 159.302 175.811 221.911 165.148C254.297 159.633 282.764 144.412 303.442 122.993L3.64844 119.859Z" fill="#298FFF"/>
<path opacity="0.1" d="M331.967 22.501H297.615C295.984 22.501 294.647 21.2932 294.647 19.8174C294.647 18.3416 295.984 17.1307 297.615 17.1307H303.556C301.923 17.1307 300.588 15.9229 300.588 14.444C300.588 12.9651 301.923 11.7604 303.556 11.7604H299.316C297.682 11.7604 296.345 10.5526 296.345 9.07373C296.345 7.59482 297.682 6.39013 299.316 6.39013H317.245C313.267 4.71712 308.616 3.52783 303.257 2.90238C254.365 -2.77601 236.91 0.979797 230.753 4.84036C223.078 9.71227 214.552 13.0928 205.624 14.8045C175.46 20.4336 119.048 27.2058 67.9185 12.6478C42.5063 5.39803 23.6181 17.6329 12.2988 38.085H337.933C337.508 32.1416 336.235 26.6512 333.899 21.8478C333.346 22.2748 332.666 22.5047 331.967 22.501V22.501Z" fill="#298FFF"/>
<path opacity="0.1" d="M0.736361 76.6875C-0.583109 88.7165 -0.134582 100.874 2.06768 112.773L303.674 122.752C311.976 114.144 319.03 104.413 324.63 93.8459L0.736361 76.6875ZM120.025 102.43H114.087C115.72 102.43 117.057 103.641 117.057 105.116C117.057 106.592 115.72 107.8 114.087 107.8H79.7342C78.104 107.8 76.7665 106.592 76.7665 105.116C76.7665 103.641 78.104 102.43 79.7342 102.43H85.6759C84.0425 102.43 82.7081 101.222 82.7081 99.7461C82.7081 98.2703 84.0425 97.0594 85.6759 97.0594H81.4323C79.799 97.0594 78.4615 95.8517 78.4615 94.3758C78.4615 92.9 79.799 91.6892 81.4323 91.6892H115.785C117.418 91.6892 118.752 92.8969 118.752 94.3758C118.752 95.8548 117.418 97.0594 115.785 97.0594H120.025C121.659 97.0594 122.993 98.2672 122.993 99.7461C122.993 101.225 121.659 102.43 120.025 102.43Z" fill="#298FFF"/>
<path opacity="0.1" d="M337.946 38.2698L8.66553 45.5103C4.65924 54.8243 2.00276 65.3553 0.779297 76.2684H332.177C334.333 69.8836 335.934 63.3243 336.959 56.6637C337.949 50.252 338.343 44.0498 337.946 38.2698ZM67.635 62.0093H61.6965C63.3298 62.0093 64.6673 63.2202 64.6673 64.696C64.6673 66.1718 63.3298 67.3827 61.6965 67.3827H27.3441C25.7138 67.3827 24.3763 66.1718 24.3763 64.696C24.3763 63.2202 25.7138 62.0093 27.3441 62.0093H33.2857C31.6524 62.0093 30.318 60.8015 30.318 59.3257C30.318 57.8499 31.6524 56.639 33.2857 56.639H29.0421C27.4088 56.639 26.0713 55.4313 26.0713 53.9554C26.0713 52.4796 27.4088 51.2688 29.0421 51.2688H63.3945C65.0279 51.2688 66.3623 52.4765 66.3623 53.9554C66.3623 55.4343 65.0279 56.639 63.3945 56.639H67.635C69.2684 56.639 70.6028 57.8499 70.6028 59.3257C70.6028 60.8015 69.2684 62.0093 67.635 62.0093Z" fill="#298FFF"/>
<path opacity="0.1" d="M167.981 240.655C244.057 240.655 305.73 234.983 305.73 227.986C305.73 220.989 244.057 215.317 167.981 215.317C91.9046 215.317 30.2324 220.989 30.2324 227.986C30.2324 234.983 91.9046 240.655 167.981 240.655Z" fill="#298FFF"/>
<path d="M248.775 115.872L247.644 117.259C247.644 117.259 247.749 123.214 246.874 124.653C245.998 126.092 249.29 134.513 250.522 133.998C251.755 133.484 254.529 120.34 254.529 120.186C254.529 120.032 248.775 115.872 248.775 115.872Z" fill="#575A89"/>
<path d="M248.674 124.345C248.674 124.345 245.078 127.99 245.333 129.737C245.589 131.484 249.031 136.971 253.962 134.023C253.962 134.023 258.536 125.424 248.674 124.345Z" fill="#575A89"/>
<path opacity="0.1" d="M259.302 138.937C259.281 139.045 258.908 140.684 258.341 143.214C258.563 141.054 258.871 139.504 259.302 138.937Z" fill="#CBD5E1"/>
<path opacity="0.1" d="M262.644 92.1082C262.875 92.0898 263.108 92.1138 263.331 92.1791C263.658 92.342 263.952 92.5634 264.2 92.8323C264.602 93.1681 265.082 93.3965 265.596 93.4962C266.111 93.5958 266.642 93.5635 267.14 93.4023C267.491 93.2452 267.864 93.1414 268.246 93.0942C268.835 93.0942 269.343 93.5255 269.648 94.0185C269.954 94.5114 270.111 95.0968 270.373 95.6237C270.635 96.1506 271.054 96.6497 271.63 96.7791C271.906 96.7898 272.178 96.8526 272.431 96.964C272.586 97.09 272.706 97.2547 272.776 97.4415C273.257 98.4798 273.639 99.7061 274.666 100.214C275.043 100.389 275.455 100.479 275.871 100.476C276.294 100.507 276.718 100.431 277.103 100.255C277.483 100.043 277.796 99.7303 278.009 99.3518C278.65 98.2919 278.724 96.9794 278.573 95.75C278.385 94.1992 277.833 92.7148 276.961 91.4181C276.044 90.1065 274.794 89.0621 273.34 88.3914C271.886 87.7207 270.281 87.4478 268.687 87.6006C268.131 87.6632 267.58 87.7662 267.038 87.9087C265.078 88.4325 263.155 89.4123 261.966 91.0545C261.678 91.4644 261.362 91.8536 261.02 92.2191C261.559 92.1668 262.101 92.1205 262.644 92.1082Z" fill="#CBD5E1"/>
<path opacity="0.1" d="M254.784 109.042C254.784 109.042 255.145 111.919 253.912 112.637C252.68 113.355 254.784 109.042 254.784 109.042Z" fill="#CBD5E1"/>
<path opacity="0.1" d="M280.928 131.33C280.928 131.33 283.855 127.017 284.268 128.249C284.68 129.481 280.928 131.33 280.928 131.33Z" fill="#CBD5E1"/>
<path opacity="0.1" d="M281.134 132.766C281.134 132.766 284.021 129.223 284.298 130.609C284.575 131.996 281.134 132.766 281.134 132.766Z" fill="#CBD5E1"/>
<path opacity="0.1" d="M271.737 108.311C271.737 108.311 276.072 108.589 276.1 109.205C276.128 109.821 271.737 108.311 271.737 108.311Z" fill="#CBD5E1"/>
<path opacity="0.1" d="M261.203 105.683C261.203 105.683 256.868 105.961 256.84 106.577C256.812 107.193 261.203 105.683 261.203 105.683Z" fill="#CBD5E1"/>
<path opacity="0.1" d="M277.775 118.282C277.732 118.251 277.689 118.226 277.645 118.199C278.755 119.197 278.57 121.378 277.208 123.178C275.846 124.977 273.778 125.726 272.521 124.918C272.561 124.952 272.594 124.989 272.638 125.023C273.87 125.966 276.028 125.226 277.451 123.366C278.875 121.505 279.014 119.228 277.775 118.282Z" fill="#CBD5E1"/>
<path opacity="0.1" d="M253.956 122.947C252.859 120.968 253 118.784 254.242 117.955C254.196 117.977 254.147 117.995 254.101 118.02C252.739 118.778 252.56 121.049 253.688 123.094C254.816 125.14 256.85 126.175 258.212 125.43C258.257 125.404 258.3 125.375 258.341 125.344C256.982 125.96 255.053 124.925 253.956 122.947Z" fill="#CBD5E1"/>
<path opacity="0.1" d="M255.422 106.266L255.024 106.882L254.011 106.343L254.544 105.523C254.896 105.69 255.199 105.946 255.422 106.266V106.266Z" fill="#CBD5E1"/>
<path d="M248.981 129.069C248.981 129.069 249.884 124.823 248.673 123.473C247.462 122.124 247.85 115.05 249.699 115.204C251.548 115.358 254.322 120.953 253.86 122.136C253.397 123.319 251.65 129.377 251.65 129.377L248.981 129.069Z" fill="#FBBEBE"/>
<path d="M250.347 132.436C251.879 132.436 253.12 131.595 253.12 130.557C253.12 129.519 251.879 128.677 250.347 128.677C248.815 128.677 247.573 129.519 247.573 130.557C247.573 131.595 248.815 132.436 250.347 132.436Z" fill="#575A89"/>
<path d="M159.941 235.174C212.448 235.174 255.013 192.618 255.013 140.123C255.013 87.6284 212.448 45.0728 159.941 45.0728C107.434 45.0728 64.8682 87.6284 64.8682 140.123C64.8682 192.618 107.434 235.174 159.941 235.174Z" fill="#298FFF"/>
<path d="M209.825 187.889C209.825 202.894 186.231 189.171 160.936 189.171C135.64 189.171 110.056 202.327 110.056 187.322C110.056 178.766 118.21 166.867 129.908 158.225C138.722 151.711 149.545 147.047 160.418 147.047C171.598 147.047 182.551 152.096 191.288 159.029C202.314 167.77 209.825 179.515 209.825 187.889Z" fill="#444053"/>
<path d="M191.285 159.022C177.839 156.998 153.521 154.53 129.908 158.218C138.722 151.705 149.545 147.04 160.418 147.04C171.595 147.04 182.548 152.09 191.285 159.022Z" fill="#F6F8FB"/>
<path opacity="0.05" d="M110.055 73.0272C110.055 73.0272 81.4166 91.3318 81.6508 119.964C81.8851 148.596 110.055 73.0272 110.055 73.0272Z" fill="#CBD5E1"/>
<path d="M254.976 21.3302C254.976 21.3302 229.028 19.7681 232.088 37.9463C232.088 37.9463 231.471 41.1568 234.393 42.6172C234.393 42.6172 234.439 41.2708 237.052 41.7268C237.984 41.8825 238.93 41.928 239.872 41.8623C241.145 41.7758 242.355 41.276 243.318 40.4389V40.4389C243.318 40.4389 250.612 37.4287 253.451 25.5081C253.451 25.5081 255.549 22.9077 255.466 22.2422L251.087 24.1093C251.087 24.1093 252.581 27.2674 251.395 29.8924C251.395 29.8924 251.253 24.2264 250.412 24.3465C250.242 24.3743 248.138 25.4403 248.138 25.4403C248.138 25.4403 250.711 30.9431 248.754 34.9392C248.754 34.9392 249.49 28.1609 247.318 25.8378L244.236 27.6371C244.236 27.6371 247.244 33.3186 245.204 37.9556C245.204 37.9556 245.728 30.8445 243.589 28.0746L240.794 30.2529C240.794 30.2529 243.62 35.8543 241.897 39.6994C241.897 39.6994 241.672 31.4206 240.19 30.7952C240.19 30.7952 237.746 32.9519 237.373 33.8362C237.373 33.8362 239.308 37.9001 238.11 40.0445C238.11 40.0445 237.373 34.5294 236.769 34.4986C236.769 34.4986 234.334 38.1527 234.079 40.6607C234.079 40.6607 234.186 36.9326 236.177 34.1504C236.177 34.1504 233.823 34.5541 232.451 36.0823C232.451 36.0823 232.83 33.4973 236.766 33.2723C236.766 33.2723 238.778 30.4994 239.318 30.333C239.318 30.333 235.388 30.0033 233.006 31.0601C233.006 31.0601 235.102 28.623 240.036 29.7291L242.809 27.48C242.809 27.48 237.638 26.7713 235.444 27.5539C235.444 27.5539 237.968 25.3972 243.552 26.9685L246.557 25.1722C246.557 25.1722 242.147 24.2233 239.518 24.556C239.518 24.556 242.291 23.0617 247.435 24.6824L249.592 23.718C249.592 23.718 246.359 23.0833 245.413 22.9847C244.467 22.8861 244.418 22.6211 244.418 22.6211C246.471 22.2874 248.576 22.5317 250.498 23.3267C250.498 23.3267 255.053 21.6167 254.976 21.3302Z" fill="#298FFF"/>
<path d="M228.362 13.2486C228.362 13.2486 216.651 12.5399 218.019 20.754C218.019 20.754 217.745 22.2052 219.061 22.8645C219.061 22.8645 219.08 22.2483 220.263 22.464C220.683 22.5332 221.11 22.5539 221.536 22.5256C222.111 22.4846 222.658 22.2587 223.095 21.8817V21.8817C223.095 21.8817 226.389 20.5199 227.671 15.1342C227.671 15.1342 228.621 13.9603 228.596 13.6583L226.618 14.5026C226.618 14.5026 227.296 15.9291 226.762 17.1153C226.762 17.1153 226.698 14.5549 226.319 14.6166C226.242 14.6166 225.289 15.1095 225.289 15.1095C225.289 15.1095 226.454 17.5959 225.576 19.4014C225.576 19.4014 225.909 16.3389 224.929 15.2882L223.536 16.1016C223.536 16.1016 224.895 18.6712 223.973 20.7663C223.973 20.7663 224.208 17.5528 223.243 16.3019L221.979 17.2847C221.979 17.2847 223.255 19.8143 222.479 21.552C222.479 21.552 222.377 17.8116 221.705 17.5281C221.705 17.5281 220.602 18.5018 220.432 18.9023C220.432 18.9023 221.308 20.7509 220.765 21.7091C220.765 21.7091 220.432 19.2166 220.149 19.2073C220.149 19.2073 219.049 20.8557 218.935 21.9803C218.988 20.9337 219.314 19.9193 219.881 19.0379C219.247 19.1578 218.662 19.461 218.198 19.9098C218.198 19.9098 218.368 18.7421 220.152 18.6404C220.152 18.6404 221.061 17.3895 221.305 17.3125C221.305 17.3125 219.529 17.1646 218.454 17.6421C218.454 17.6421 219.4 16.5391 221.631 17.0259L222.864 16.0123C222.864 16.0123 220.528 15.7042 219.536 16.0431C219.536 16.0431 220.676 15.0695 223.2 15.7812L224.556 14.9678C224.556 14.9678 222.565 14.5395 221.375 14.6936C221.375 14.6936 222.63 14.0188 224.953 14.7521L225.924 14.3146C225.924 14.3146 224.463 14.0281 224.038 13.9849C223.613 13.9418 223.585 13.8216 223.585 13.8216C224.51 13.6678 225.46 13.7745 226.328 14.1297C226.328 14.1297 228.396 13.378 228.362 13.2486Z" fill="#298FFF"/>
<path opacity="0.1" d="M330.701 224.92C335.284 224.92 339 224.293 339 223.518C339 222.744 335.284 222.116 330.701 222.116C326.117 222.116 322.401 222.744 322.401 223.518C322.401 224.293 326.117 224.92 330.701 224.92Z" fill="#298FFF"/>
<path opacity="0.1" d="M14.4134 248.241C18.997 248.241 22.7126 247.613 22.7126 246.839C22.7126 246.065 18.997 245.437 14.4134 245.437C9.82993 245.437 6.11426 246.065 6.11426 246.839C6.11426 247.613 9.82993 248.241 14.4134 248.241Z" fill="#298FFF"/>
<path opacity="0.1" d="M62.5902 250C67.1737 250 70.8894 249.372 70.8894 248.598C70.8894 247.824 67.1737 247.196 62.5902 247.196C58.0067 247.196 54.291 247.824 54.291 248.598C54.291 249.372 58.0067 250 62.5902 250Z" fill="#298FFF"/>
<path d="M312.537 240.637C319.381 240.637 324.929 239.699 324.929 238.542C324.929 237.384 319.381 236.446 312.537 236.446C305.693 236.446 300.146 237.384 300.146 238.542C300.146 239.699 305.693 240.637 312.537 240.637Z" fill="#298FFF"/>
<path d="M317.659 235.119C318.224 234.657 318.637 234.035 318.842 233.335C318.993 232.629 318.691 231.779 318.016 231.52C317.258 231.23 316.447 231.757 315.834 232.287C315.221 232.817 314.515 233.421 313.711 233.31C314.124 232.936 314.434 232.46 314.609 231.93C314.784 231.401 314.818 230.835 314.709 230.287C314.674 230.061 314.578 229.848 314.432 229.671C314.01 229.221 313.249 229.412 312.743 229.767C311.141 230.894 310.694 233.07 310.684 235.029C310.524 234.324 310.66 233.587 310.657 232.872C310.654 232.158 310.453 231.332 309.843 230.953C309.465 230.751 309.04 230.651 308.61 230.663C307.889 230.636 307.088 230.706 306.595 231.233C305.979 231.89 306.142 232.986 306.675 233.698C307.208 234.41 308.016 234.872 308.758 235.368C309.356 235.723 309.866 236.209 310.25 236.789C310.295 236.87 310.332 236.956 310.361 237.044H314.876C315.886 236.531 316.822 235.883 317.659 235.119V235.119Z" fill="#298FFF"/>
<path d="M18.2868 209.284C18.2868 209.284 19.9787 211.496 17.5041 214.83C15.0294 218.163 12.9893 220.992 13.8059 223.075C13.8059 223.075 17.538 216.869 20.5858 216.78C23.6337 216.691 21.6275 213.015 18.2868 209.284Z" fill="#298FFF"/>
<path opacity="0.1" d="M18.2867 209.284C18.4337 209.498 18.5498 209.731 18.6319 209.977C21.5966 213.459 23.1744 216.709 20.3269 216.789C17.6704 216.866 14.4715 221.611 13.7227 222.81C13.7488 222.903 13.7797 222.994 13.8151 223.084C13.8151 223.084 17.5471 216.879 20.595 216.789C23.6428 216.7 21.6274 213.015 18.2867 209.284Z" fill="#CBD5E1"/>
<path d="M21.4333 212.103C21.4333 212.883 21.3439 213.514 21.2361 213.514C21.1283 213.514 21.042 212.898 21.042 212.103C21.042 211.308 21.1498 211.69 21.2607 211.69C21.3717 211.69 21.4333 211.324 21.4333 212.103Z" fill="#FFD037"/>
<path d="M22.4997 213.034C21.8157 213.406 21.2211 213.631 21.1687 213.536C21.1163 213.44 21.6309 213.064 22.3149 212.692C22.9989 212.319 22.7277 212.59 22.7801 212.692C22.8325 212.793 23.196 212.661 22.4997 213.034Z" fill="#FFD037"/>
<path d="M9.34419 209.284C9.34419 209.284 7.6523 211.496 10.1239 214.83C12.5955 218.163 14.6387 220.992 13.822 223.075C13.822 223.075 10.0869 216.869 7.04212 216.78C3.99733 216.691 6.00048 213.015 9.34419 209.284Z" fill="#298FFF"/>
<path opacity="0.1" d="M9.34378 209.284C9.1955 209.497 9.07922 209.73 8.99862 209.977C6.03396 213.459 4.45302 216.709 7.30365 216.789C9.95705 216.866 13.159 221.611 13.9048 222.81C13.8796 222.903 13.8498 222.994 13.8154 223.084C13.8154 223.084 10.0803 216.879 7.03554 216.789C3.99076 216.7 6.00006 213.015 9.34378 209.284Z" fill="#CBD5E1"/>
<path d="M6.19727 212.103C6.19727 212.883 6.28354 213.514 6.39137 213.514C6.49921 213.514 6.58548 212.898 6.58548 212.103C6.58548 211.308 6.47764 211.69 6.36981 211.69C6.26197 211.69 6.19727 211.324 6.19727 212.103Z" fill="#FFD037"/>
<path d="M5.1156 213.034C5.79959 213.406 6.39732 213.631 6.4497 213.536C6.50207 213.44 5.98754 213.064 5.30354 212.692C4.61955 212.319 4.8876 212.59 4.8383 212.692C4.78901 212.793 4.4316 212.661 5.1156 213.034Z" fill="#FFD037"/>
<path d="M6.73633 222.794C6.73633 222.794 11.4699 222.65 12.8999 221.633C14.3298 220.616 20.1821 219.405 20.5365 221.017C20.8909 222.628 27.6492 229.12 22.3054 229.163C16.9616 229.206 9.88897 228.328 8.4652 227.462C7.04142 226.596 6.73633 222.794 6.73633 222.794Z" fill="#A8A8A8"/>
<path opacity="0.2" d="M22.3948 228.611C17.051 228.654 9.97834 227.776 8.55457 226.911C7.46979 226.251 7.03834 223.882 6.8935 222.788H6.73633C6.73633 222.788 7.04451 226.606 8.45903 227.471C9.87356 228.337 16.9555 229.215 22.2992 229.172C23.8401 229.172 24.3733 228.608 24.3455 227.798C24.1298 228.294 23.5443 228.602 22.3948 228.611Z" fill="#CBD5E1"/>
<path d="M126.139 127.66C127.948 127.559 136.463 126.918 141.872 123.834C142.74 123.323 143.721 123.034 144.728 122.993C146.448 122.943 148.426 123.661 147.16 127.679C145.107 134.251 133.19 141.645 125.794 141.236C118.681 140.841 110.243 137.976 104.672 127.901C104.138 126.932 103.875 125.836 103.91 124.73C103.975 122.697 104.715 120.149 108.533 122.99C113.692 126.826 123.48 127.553 125.443 127.66C125.675 127.673 125.907 127.673 126.139 127.66V127.66Z" fill="#444053"/>
<path d="M194.555 127.66C196.364 127.559 204.879 126.918 210.288 123.834C211.156 123.323 212.137 123.034 213.144 122.993C214.864 122.943 216.842 123.661 215.576 127.679C213.523 134.251 201.606 141.645 194.21 141.236C187.097 140.841 178.659 137.976 173.088 127.901C172.554 126.932 172.291 125.836 172.326 124.73C172.391 122.697 173.131 120.149 176.949 122.99C182.108 126.826 191.896 127.553 193.859 127.66C194.091 127.673 194.323 127.673 194.555 127.66V127.66Z" fill="#444053"/>
</g>
<defs>
<clipPath id="clip0_3286_38807">
<rect width="339" height="250" fill="white"/>
</clipPath>
</defs>
</svg>
