<svg width="375" height="87" viewBox="0 0 375 87" fill="none" xmlns="http://www.w3.org/2000/svg">
<path d="M166.585 52.7206C166.941 52.6139 167.492 52.5072 168.239 52.4005C169.022 52.2937 169.822 52.2404 170.641 52.2404C171.423 52.2404 172.117 52.2937 172.722 52.4005C173.362 52.5072 173.895 52.7206 174.322 53.0408C174.749 53.3609 175.069 53.8056 175.283 54.3747C175.532 54.9083 175.656 55.6198 175.656 56.5091V67.9812C175.656 69.4397 176.012 70.4891 176.723 71.1294C177.435 71.7341 178.467 72.0365 179.818 72.0365C180.636 72.0365 181.295 71.9654 181.793 71.8231C182.326 71.6808 182.735 71.5385 183.02 71.3962V52.7206C183.376 52.6139 183.927 52.5072 184.674 52.4005C185.457 52.2937 186.257 52.2404 187.075 52.2404C187.858 52.2404 188.551 52.2937 189.156 52.4005C189.796 52.5072 190.33 52.7206 190.757 53.0408C191.184 53.3609 191.504 53.8056 191.717 54.3747C191.966 54.9083 192.091 55.6198 192.091 56.5091V72.7302C192.091 74.5088 191.344 75.8428 189.85 76.7321C188.605 77.5147 187.111 78.1016 185.368 78.4929C183.66 78.9198 181.793 79.1332 179.765 79.1332C177.844 79.1332 176.065 78.9198 174.429 78.4929C172.828 78.066 171.441 77.408 170.267 76.5186C169.093 75.6293 168.186 74.491 167.546 73.1037C166.905 71.6808 166.585 69.9733 166.585 67.9812V52.7206ZM218.452 70.5425C218.452 73.246 217.438 75.3625 215.41 76.8922C213.383 78.4218 210.395 79.1866 206.446 79.1866C204.952 79.1866 203.565 79.0799 202.284 78.8664C201.003 78.653 199.901 78.3328 198.976 77.906C198.086 77.4435 197.375 76.8744 196.841 76.1985C196.343 75.5226 196.094 74.7222 196.094 73.7973C196.094 72.9436 196.272 72.2321 196.628 71.663C196.984 71.0583 197.411 70.5602 197.909 70.1689C198.94 70.7381 200.114 71.2539 201.43 71.7163C202.782 72.1432 204.329 72.3567 206.072 72.3567C207.175 72.3567 208.011 72.1966 208.58 71.8764C209.185 71.5563 209.487 71.1294 209.487 70.5958C209.487 70.0978 209.274 69.7065 208.847 69.4219C208.42 69.1373 207.709 68.9061 206.713 68.7283L205.112 68.4081C202.017 67.8034 199.705 66.8607 198.175 65.5801C196.681 64.2639 195.934 62.3963 195.934 59.9774C195.934 58.6612 196.219 57.4695 196.788 56.4024C197.357 55.3352 198.158 54.4459 199.189 53.7344C200.221 53.023 201.448 52.4716 202.871 52.0803C204.329 51.689 205.93 51.4934 207.673 51.4934C208.989 51.4934 210.217 51.6001 211.355 51.8135C212.529 51.9914 213.543 52.2759 214.396 52.6672C215.25 53.0585 215.926 53.5743 216.424 54.2147C216.922 54.8194 217.171 55.5486 217.171 56.4024C217.171 57.2205 217.011 57.932 216.691 58.5367C216.406 59.1059 216.033 59.5861 215.57 59.9774C215.286 59.7995 214.859 59.6217 214.29 59.4438C213.721 59.2304 213.098 59.0525 212.422 58.9102C211.746 58.7324 211.053 58.5901 210.341 58.4834C209.665 58.3766 209.043 58.3233 208.474 58.3233C207.3 58.3233 206.393 58.4656 205.752 58.7502C205.112 58.9992 204.792 59.4082 204.792 59.9774C204.792 60.3687 204.97 60.6889 205.325 60.9379C205.681 61.1869 206.357 61.4181 207.353 61.6315L209.007 62.005C212.422 62.7876 214.841 63.8726 216.264 65.2599C217.722 66.6117 218.452 68.3725 218.452 70.5425ZM247.382 78.2261C247.026 78.3328 246.457 78.4396 245.675 78.5463C244.928 78.653 244.145 78.7064 243.327 78.7064C242.544 78.7064 241.833 78.653 241.193 78.5463C240.588 78.4396 240.072 78.2261 239.645 77.906C239.218 77.5858 238.88 77.1589 238.631 76.6254C238.418 76.0562 238.311 75.327 238.311 74.4376V62.592C238.311 61.1335 237.938 60.1197 237.191 59.5505C236.479 58.9458 235.59 58.6434 234.523 58.6434C233.811 58.6434 233.135 58.7324 232.495 58.9102C231.855 59.0881 231.339 59.3015 230.948 59.5505V78.2261C230.592 78.3328 230.023 78.4396 229.24 78.5463C228.493 78.653 227.711 78.7064 226.892 78.7064C226.11 78.7064 225.398 78.653 224.758 78.5463C224.153 78.4396 223.638 78.2261 223.211 77.906C222.784 77.5858 222.446 77.1589 222.197 76.6254C221.983 76.0562 221.877 75.327 221.877 74.4376V43.4895C222.268 43.4184 222.837 43.3295 223.584 43.2227C224.367 43.0804 225.149 43.0093 225.932 43.0093C226.715 43.0093 227.408 43.0627 228.013 43.1694C228.653 43.2761 229.187 43.4895 229.614 43.8097C230.041 44.1298 230.361 44.5745 230.574 45.1437C230.823 45.6772 230.948 46.3887 230.948 47.278V52.5072C231.41 52.3293 232.104 52.1337 233.029 51.9202C233.989 51.6712 235.039 51.5467 236.177 51.5467C239.699 51.5467 242.438 52.436 244.394 54.2147C246.386 55.9577 247.382 58.5723 247.382 62.0584V78.2261ZM250.315 73.9574C250.315 72.4634 250.777 71.2183 251.702 70.2223C252.627 69.2263 253.89 68.7283 255.491 68.7283C257.091 68.7283 258.354 69.2263 259.279 70.2223C260.204 71.2183 260.666 72.4634 260.666 73.9574C260.666 75.4515 260.204 76.6965 259.279 77.6925C258.354 78.6886 257.091 79.1866 255.491 79.1866C253.89 79.1866 252.627 78.6886 251.702 77.6925C250.777 76.6965 250.315 75.4515 250.315 73.9574Z" fill="#007AFF"/>
<path d="M144.15 67.3001V78.8258C143.71 78.9458 143.01 79.0659 142.049 79.186C141.129 79.306 140.208 79.3661 139.288 79.3661C138.367 79.3661 138.2 79.3601 136.738 79.186C136.058 79.0659 135.663 78.9976 134.621 78.8258C134.031 78.7285 125.735 77.8031 125.735 77.8031C125.735 77.8031 134.029 75.4335 133.436 75.4335C133.436 69.3528 136.991 62.6577 136.991 58.8467C132.844 57.6619 133.437 57.6619 129.29 56.4771C132.844 56.4771 132.844 56.4771 136.399 56.4771C134.029 55.8848 123.366 51.7381 123.29 51.731C123.29 51.4935 135.214 51.3913 135.214 51.1457C135.214 50.3052 116.417 44.6675 116.858 44.2273C117.338 43.7471 136.398 42.2599 136.398 42.2599C139.457 41.9004 141.137 41.6675 141.137 41.6675C142.914 41.6675 144.751 41.6675 146.791 41.6675C152.314 41.6675 156.476 42.8281 159.278 45.1492C162.079 47.4703 163.48 50.6119 163.48 54.5738C163.48 57.0551 162.839 59.1761 161.559 60.937C160.278 62.6978 158.757 64.0585 156.997 65.019C158.437 66.98 159.858 68.8209 161.259 70.5417C162.659 72.2626 167.887 78.3293 168.688 79.73C167.238 79.73 166.913 79.7373 163.975 79.73C161.229 79.73 160.192 79.8429 158.9 79.73C157.186 79.5802 157.132 79.5802 156.539 79.5802C155.947 79.5802 148.838 78.9878 147.654 78.3954C149.431 78.3954 153.577 77.8031 154.762 77.2107L150.624 67.3001H144.15ZM147.932 59.3162C149.453 59.3162 151.512 59.0547 152.393 58.2543C153.273 57.4539 154.17 56.2207 154.17 54.7C154.17 53.1792 152.985 51.7381 151.8 51.1457C150.615 50.5533 148.852 50.0716 146.731 50.0716C146.131 50.0716 145.651 50.0916 145.291 50.1317C144.931 50.1717 144.53 50.2317 144.09 50.3117V59.3162H147.932Z" fill="#007AFF"/>
<path d="M155.549 8.38876C155.781 8.75464 155.981 9.25356 156.147 9.88553C156.347 10.4842 156.447 11.1162 156.447 11.7814C156.447 13.0786 156.164 14.01 155.598 14.5754C155.066 15.1076 154.335 15.3737 153.403 15.3737H142.926V21.0116H153.852C154.118 21.3774 154.335 21.8597 154.501 22.4584C154.7 23.0571 154.8 23.6891 154.8 24.3543C154.8 25.6183 154.517 26.533 153.952 27.0984C153.42 27.6306 152.688 27.8967 151.757 27.8967H143.026V38.424C142.66 38.5238 142.078 38.6236 141.279 38.7234C140.514 38.8232 139.749 38.8731 138.984 38.8731C138.219 38.8731 137.537 38.8065 136.939 38.6735C136.373 38.5737 135.891 38.3741 135.492 38.0748C135.093 37.7754 134.793 37.3597 134.594 36.8275C134.394 36.2953 134.294 35.5968 134.294 34.732V13.0288C134.294 11.5985 134.71 10.4676 135.542 9.63607C136.373 8.80453 137.504 8.38876 138.934 8.38876H155.549ZM185.124 26.4997C185.124 28.5619 184.808 30.408 184.176 32.0378C183.544 33.6343 182.646 34.9814 181.482 36.0791C180.351 37.1767 178.987 38.0083 177.391 38.5737C175.794 39.1392 174.015 39.4219 172.052 39.4219C170.09 39.4219 168.311 39.1225 166.714 38.5238C165.117 37.9251 163.737 37.0769 162.573 35.9793C161.442 34.8484 160.561 33.4847 159.929 31.8881C159.297 30.2916 158.981 28.4954 158.981 26.4997C158.981 24.5373 159.297 22.7578 159.929 21.1612C160.561 19.5647 161.442 18.2176 162.573 17.1199C163.737 15.989 165.117 15.1242 166.714 14.5255C168.311 13.9268 170.09 13.6275 172.052 13.6275C174.015 13.6275 175.794 13.9435 177.391 14.5754C178.987 15.1741 180.351 16.0389 181.482 17.1698C182.646 18.2675 183.544 19.6146 184.176 21.2111C184.808 22.8077 185.124 24.5705 185.124 26.4997ZM167.662 26.4997C167.662 28.5287 168.044 30.092 168.809 31.1896C169.608 32.254 170.705 32.7862 172.102 32.7862C173.499 32.7862 174.564 32.2374 175.295 31.1397C176.06 30.0421 176.443 28.4954 176.443 26.4997C176.443 24.504 176.06 22.974 175.295 21.9096C174.53 20.812 173.449 20.2632 172.052 20.2632C170.655 20.2632 169.574 20.812 168.809 21.9096C168.044 22.974 167.662 24.504 167.662 26.4997ZM215.356 26.4997C215.356 28.5619 215.04 30.408 214.408 32.0378C213.776 33.6343 212.878 34.9814 211.714 36.0791C210.583 37.1767 209.219 38.0083 207.623 38.5737C206.026 39.1392 204.247 39.4219 202.284 39.4219C200.322 39.4219 198.542 39.1225 196.946 38.5238C195.349 37.9251 193.969 37.0769 192.805 35.9793C191.674 34.8484 190.792 33.4847 190.16 31.8881C189.528 30.2916 189.212 28.4954 189.212 26.4997C189.212 24.5373 189.528 22.7578 190.16 21.1612C190.792 19.5647 191.674 18.2176 192.805 17.1199C193.969 15.989 195.349 15.1242 196.946 14.5255C198.542 13.9268 200.322 13.6275 202.284 13.6275C204.247 13.6275 206.026 13.9435 207.623 14.5754C209.219 15.1741 210.583 16.0389 211.714 17.1698C212.878 18.2675 213.776 19.6146 214.408 21.2111C215.04 22.8077 215.356 24.5705 215.356 26.4997ZM197.894 26.4997C197.894 28.5287 198.276 30.092 199.041 31.1896C199.839 32.254 200.937 32.7862 202.334 32.7862C203.731 32.7862 204.795 32.2374 205.527 31.1397C206.292 30.0421 206.675 28.4954 206.675 26.4997C206.675 24.504 206.292 22.974 205.527 21.9096C204.762 20.812 203.681 20.2632 202.284 20.2632C200.887 20.2632 199.806 20.812 199.041 21.9096C198.276 22.974 197.894 24.504 197.894 26.4997ZM219.444 26.4997C219.444 24.3045 219.777 22.4085 220.442 20.812C221.107 19.1822 222.022 17.8351 223.186 16.7707C224.383 15.7063 225.764 14.9247 227.327 14.4257C228.924 13.8936 230.637 13.6275 232.466 13.6275C233.131 13.6275 233.78 13.694 234.412 13.827C235.044 13.9268 235.559 14.0599 235.958 14.2262V6.1436C236.291 6.04381 236.823 5.94403 237.555 5.84424C238.287 5.7112 239.035 5.64467 239.8 5.64467C240.532 5.64467 241.181 5.69456 241.746 5.79435C242.345 5.89413 242.844 6.0937 243.243 6.39306C243.642 6.69241 243.941 7.10818 244.141 7.64037C244.34 8.1393 244.44 8.80453 244.44 9.63607V33.2851C244.44 34.8484 243.708 36.0957 242.245 37.027C241.28 37.659 240.033 38.2078 238.503 38.6735C236.973 39.1724 235.21 39.4219 233.214 39.4219C231.052 39.4219 229.107 39.1225 227.377 38.5238C225.681 37.9251 224.234 37.0603 223.036 35.9294C221.872 34.7985 220.974 33.4514 220.342 31.8881C219.743 30.2916 219.444 28.4954 219.444 26.4997ZM233.614 20.2632C231.817 20.2632 230.437 20.7787 229.472 21.8098C228.508 22.8409 228.026 24.4042 228.026 26.4997C228.026 28.5619 228.475 30.1252 229.373 31.1896C230.271 32.2207 231.568 32.7363 233.264 32.7363C233.863 32.7363 234.395 32.6531 234.861 32.4868C235.36 32.2873 235.742 32.0711 236.008 31.8382V20.8619C235.343 20.4627 234.545 20.2632 233.614 20.2632Z" fill="#0F172A"/>
</svg>
