<svg width="20" height="20" viewBox="0 0 20 20" fill="none" xmlns="http://www.w3.org/2000/svg">
<path fill-rule="evenodd" clip-rule="evenodd" d="M5.05025 3.63567C5.44078 4.02619 5.44078 4.65936 5.05025 5.04988C2.31658 7.78355 2.31658 12.2157 5.05025 14.9494C5.44078 15.3399 5.44078 15.9731 5.05025 16.3636C4.65973 16.7541 4.02656 16.7541 3.63604 16.3636C0.12132 12.8489 0.12132 7.15038 3.63604 3.63567C4.02656 3.24514 4.65973 3.24514 5.05025 3.63567ZM14.9498 3.6359C15.3403 3.24537 15.9735 3.24537 16.364 3.6359C19.8787 7.15062 19.8787 12.8491 16.364 16.3638C15.9735 16.7543 15.3403 16.7543 14.9498 16.3638C14.5592 15.9733 14.5592 15.3401 14.9498 14.9496C17.6834 12.2159 17.6834 7.78378 14.9498 5.05011C14.5592 4.65959 14.5592 4.02642 14.9498 3.6359ZM7.87869 6.46409C8.26921 6.85462 8.26921 7.48778 7.87869 7.87831C6.70711 9.04988 6.70711 10.9494 7.87869 12.1209C8.26921 12.5115 8.26921 13.1446 7.87868 13.5352C7.48816 13.9257 6.855 13.9257 6.46447 13.5352C4.51185 11.5825 4.51185 8.41672 6.46447 6.46409C6.855 6.07357 7.48816 6.07357 7.87869 6.46409ZM12.1213 6.46433C12.5119 6.0738 13.145 6.0738 13.5355 6.46433C15.4882 8.41695 15.4882 11.5828 13.5355 13.5354C13.145 13.9259 12.5119 13.9259 12.1213 13.5354C11.7308 13.1449 11.7308 12.5117 12.1213 12.1212C13.2929 10.9496 13.2929 9.05011 12.1213 7.87854C11.7308 7.48801 11.7308 6.85485 12.1213 6.46433ZM10 8.99986C10.5523 8.99986 11 9.44757 11 9.99986V10.0099C11 10.5621 10.5523 11.0099 10 11.0099C9.44772 11.0099 9 10.5621 9 10.0099V9.99986C9 9.44757 9.44772 8.99986 10 8.99986Z" fill="#101010"/>
</svg>
